<svg xmlns="http://www.w3.org/2000/svg" xmlns:xlink="http://www.w3.org/1999/xlink" width="1080" zoomAndPan="magnify" viewBox="0 0 810 809.999993" height="1080" preserveAspectRatio="xMidYMid meet" version="1.0"><defs><clipPath id="94d270ad79"><path d="M 243 243.589844 L 567 243.589844 L 567 566 L 243 566 Z M 243 243.589844 " clip-rule="nonzero"/></clipPath><clipPath id="0b98a0cf98"><path d="M 255 255.589844 L 579 255.589844 L 579 577.339844 L 255 577.339844 Z M 255 255.589844 " clip-rule="nonzero"/></clipPath><clipPath id="523ecd67ba"><path d="M 0 0 L 809.703125 0 L 809.703125 807 L 0 807 Z M 0 0 " clip-rule="nonzero"/></clipPath></defs><g clip-path="url(#94d270ad79)"><path fill="#000000" d="M 405.070312 243.699219 C 315.546875 243.699219 243 316.171875 243 405.609375 C 243 485.933594 301.652344 552.660156 378.410156 565.277344 L 378.410156 455.515625 L 337.15625 455.515625 L 337.15625 407.433594 L 378.410156 407.433594 L 378.410156 372.527344 C 378.410156 334.675781 409.140625 309.023438 447.027344 309.023438 C 463.863281 309.023438 474.386719 311.546875 474.386719 311.546875 L 474.386719 351.921875 L 447.027344 351.921875 C 435.660156 351.921875 426.398438 361.171875 426.398438 372.527344 L 426.398438 407.433594 L 470.601562 407.433594 L 464.425781 455.515625 L 426.398438 455.515625 L 426.398438 565.980469 C 505.679688 555.464844 566.859375 487.617188 566.859375 405.609375 C 567 316.171875 494.453125 243.699219 405.070312 243.699219 Z M 405.070312 243.699219 " fill-opacity="1" fill-rule="nonzero"/></g><g clip-path="url(#0b98a0cf98)"><path fill="#000000" d="M 416.996094 255.601562 C 327.523438 255.601562 254.996094 328.054688 254.996094 417.429688 C 254.996094 498.3125 314.402344 565.335938 392.003906 577.339844 L 392.003906 467.742188 L 351.292969 467.742188 L 351.292969 417.816406 L 392.003906 417.816406 L 392.003906 386.671875 C 392.003906 345.660156 425.40625 312.292969 466.464844 312.292969 L 490.445312 312.292969 L 490.445312 362.21875 L 466.464844 362.21875 C 452.964844 362.21875 441.984375 373.1875 441.984375 386.671875 L 441.984375 417.816406 L 483.566406 417.816406 L 483.566406 467.742188 L 441.984375 467.742188 L 441.984375 577.339844 C 519.589844 565.335938 578.992188 498.3125 578.992188 417.429688 C 578.992188 328.054688 506.464844 255.601562 416.996094 255.601562 Z M 416.996094 255.601562 " fill-opacity="1" fill-rule="nonzero"/></g><g clip-path="url(#523ecd67ba)"><path fill="#ffffff" d="M 405.027344 0.277344 C 181.132812 0.277344 -0.296875 181.707031 -0.296875 405.601562 C -0.296875 606.683594 146.390625 773.722656 338.351562 805.308594 L 338.351562 530.53125 L 235.175781 530.53125 L 235.175781 410.160156 L 338.351562 410.160156 L 338.351562 322.78125 C 338.351562 228.03125 415.203125 163.8125 509.953125 163.8125 C 552.066406 163.8125 578.386719 170.128906 578.386719 170.128906 L 578.386719 271.195312 L 509.953125 271.195312 C 481.527344 271.195312 458.367188 294.355469 458.367188 322.78125 L 458.367188 410.160156 L 568.910156 410.160156 L 553.46875 530.53125 L 458.367188 530.53125 L 458.367188 807.0625 C 656.640625 780.742188 809.644531 610.894531 809.644531 405.601562 C 809.996094 181.707031 628.566406 0.277344 405.027344 0.277344 Z M 405.027344 0.277344 " fill-opacity="1" fill-rule="nonzero"/></g></svg>