<svg xmlns="http://www.w3.org/2000/svg" xmlns:xlink="http://www.w3.org/1999/xlink" width="1080" zoomAndPan="magnify" viewBox="0 0 810 809.999993" height="1080" preserveAspectRatio="xMidYMid meet" version="1.0"><defs><clipPath id="938fe9947a"><path d="M 2.53125 0 L 788 0 L 788 776 L 2.53125 776 Z M 2.53125 0 " clip-rule="nonzero"/></clipPath></defs><g clip-path="url(#938fe9947a)"><path fill="#ffffff" d="M 707.222656 42.835938 C 677.054688 20.210938 643.632812 6.027344 606.128906 1.570312 C 604.355469 1.355469 602.652344 0.5625 600.917969 0.0390625 C 588.253906 0.0390625 575.589844 0.0390625 562.925781 0.0390625 C 551.113281 2.429688 539.105469 4.121094 527.519531 7.335938 C 480.609375 20.339844 443.039062 47.015625 414.695312 86.503906 C 410.734375 92.019531 406.722656 94.195312 399.835938 94.183594 C 275.863281 93.957031 151.894531 94.011719 27.925781 94.046875 C 24.253906 94.046875 20.53125 94.148438 16.921875 94.753906 C 8.226562 96.21875 3.554688 101.425781 2.75 110.179688 C 2.535156 112.535156 2.652344 114.921875 2.652344 117.296875 C 2.648438 333.585938 2.648438 549.871094 2.648438 766.164062 C 2.648438 768.949219 2.648438 771.734375 2.648438 775.621094 C 145.21875 633.046875 286.820312 491.445312 428.902344 349.363281 C 439.460938 362.621094 449.125 374.757812 458.90625 387.042969 C 437.214844 408.425781 415.703125 429.625 394.925781 450.105469 C 503.839844 559.019531 611.347656 666.527344 719.335938 774.519531 C 719.335938 771.699219 719.335938 768.679688 719.335938 765.65625 C 719.335938 636.148438 719.371094 506.640625 719.230469 377.125 C 719.222656 371.257812 720.699219 366.652344 724.386719 362.074219 C 743.785156 337.984375 760.5 312.308594 772.539062 283.5625 C 807.488281 200.140625 779.625 97.125 707.222656 42.835938 Z M 246.8125 390.074219 C 194.941406 413.3125 131.476562 394.203125 100.515625 346.40625 C 67.613281 295.617188 76.523438 231.964844 122.25 191.089844 C 162.828125 154.808594 229.890625 152.691406 271.742188 187.074219 C 262.664062 198.859375 253.867188 210.285156 244.585938 222.335938 C 221.28125 206.058594 196.394531 202.679688 170.425781 213.613281 C 151.609375 221.53125 137.992188 235.476562 131.074219 254.691406 C 116.40625 295.421875 137.097656 338.394531 176.746094 350.957031 C 215.757812 363.320312 258.519531 341.960938 269.082031 303.757812 C 257.628906 303.757812 246.484375 303.757812 235.34375 303.757812 C 224.039062 303.757812 212.734375 303.757812 200.734375 303.757812 C 200.734375 288.667969 200.734375 274.09375 200.734375 258.960938 C 239.617188 258.960938 278.5 258.960938 317.363281 258.960938 C 324.648438 311.230469 302.367188 365.191406 246.8125 390.074219 Z M 713.25 293.3125 C 695.484375 320.320312 674.867188 345.496094 654.925781 371.027344 C 630.761719 401.949219 608.652344 434.027344 599.105469 472.714844 C 594.597656 490.996094 592.535156 509.886719 589.179688 529.605469 C 584.683594 529.605469 578.992188 529.605469 573.351562 529.605469 C 571.621094 515.457031 570.660156 501.554688 568.125 487.945312 C 561.28125 451.226562 544.613281 418.816406 522.214844 389.328125 C 502.125 362.878906 480.886719 337.292969 461.09375 310.628906 C 443.339844 286.707031 431.140625 260.117188 426.1875 230.300781 C 413.390625 153.285156 462.730469 75.515625 538.089844 54.648438 C 628.523438 29.609375 718.699219 85 736.332031 176.878906 C 744.332031 218.609375 736.402344 258.125 713.25 293.3125 Z M 713.25 293.3125 " fill-opacity="1" fill-rule="nonzero"/></g><path fill="#ffffff" d="M 40.675781 809.996094 C 253.671875 809.996094 468.425781 809.996094 682.730469 809.996094 C 575.367188 702.628906 468.019531 595.28125 361.703125 488.972656 C 254.660156 596.019531 147.21875 703.457031 40.675781 809.996094 Z M 40.675781 809.996094 " fill-opacity="1" fill-rule="nonzero"/><path fill="#ffffff" d="M 581.597656 133.558594 C 548.023438 133.78125 520.316406 161.566406 520.269531 195.054688 C 520.222656 228.730469 547.730469 256.324219 581.460938 256.441406 C 615.140625 256.558594 642.707031 229.441406 643.339844 195.582031 C 643.949219 162.4375 614.988281 133.335938 581.597656 133.558594 Z M 581.597656 133.558594 " fill-opacity="1" fill-rule="nonzero"/></svg>