<svg xmlns="http://www.w3.org/2000/svg" xmlns:xlink="http://www.w3.org/1999/xlink" width="1080" zoomAndPan="magnify" viewBox="0 0 810 809.999993" height="1080" preserveAspectRatio="xMidYMid meet" version="1.0"><defs><clipPath id="65f84ce713"><path d="M 400 220 L 771.226562 220 L 771.226562 470 L 400 470 Z M 400 220 " clip-rule="nonzero"/></clipPath></defs><path fill="#ffffff" d="M 150.9375 578.921875 C 121.742188 592.3125 89.117188 583.625 78.046875 559.511719 C 66.976562 535.386719 81.667969 504.988281 110.855469 491.585938 C 140.039062 478.195312 172.675781 486.886719 183.746094 511.003906 C 194.808594 535.117188 180.121094 565.527344 150.9375 578.921875 Z M 329.371094 464.875 L 302.214844 435.933594 L 196.671875 484.371094 C 175.4375 461.929688 136.960938 455.972656 101.898438 472.066406 C 59.664062 491.453125 38.40625 535.449219 54.417969 570.351562 C 70.433594 605.246094 117.652344 617.824219 159.890625 598.441406 C 194.949219 582.347656 215.535156 549.292969 212.363281 518.566406 L 329.371094 464.875 " fill-opacity="1" fill-rule="nonzero"/><g clip-path="url(#65f84ce713)"><path fill="#ffffff" d="M 424.804688 379.671875 L 400.578125 469.785156 L 756.886719 236.851562 L 771.421875 220.609375 L 424.804688 379.671875 " fill-opacity="1" fill-rule="nonzero"/></g><path fill="#ffffff" d="M 353.367188 696.511719 C 345.027344 727.527344 317.492188 747.082031 291.871094 740.195312 C 266.246094 733.308594 252.238281 702.578125 260.570312 671.566406 C 268.90625 640.550781 296.441406 621 322.066406 627.886719 C 347.691406 634.769531 361.707031 665.503906 353.367188 696.511719 Z M 353.058594 421.300781 C 355.617188 418.269531 360.148438 417.890625 363.183594 420.449219 C 366.214844 423.015625 366.59375 427.546875 364.035156 430.570312 C 361.46875 433.605469 356.945312 433.984375 353.910156 431.425781 C 350.878906 428.867188 350.5 424.332031 353.058594 421.300781 Z M 346.164062 610.703125 L 397.722656 418.949219 L 510.355469 0 L 496.757812 17.039062 L 317.210938 428.582031 L 347.492188 460.855469 L 309.835938 600.933594 C 279.007812 602.933594 249.847656 628.738281 239.832031 665.992188 C 227.769531 710.867188 248.046875 755.332031 285.125 765.296875 C 297.160156 768.535156 309.488281 767.714844 321.0625 763.632812 C 325.699219 778.523438 333.238281 790.429688 343.613281 799.203125 C 347.375 802.378906 351.503906 805.140625 355.996094 807.496094 C 360.6875 809.941406 366.476562 808.128906 368.921875 803.445312 C 371.371094 798.753906 369.554688 792.964844 364.871094 790.519531 C 351.660156 783.617188 342.976562 771.859375 338.402344 754.660156 C 354.78125 743.25 368 724.804688 374.101562 702.085938 C 384.125 664.832031 371.835938 627.886719 346.164062 610.703125 " fill-opacity="1" fill-rule="nonzero"/><path fill="#ffffff" d="M 325.335938 484.078125 L 329.433594 488.839844 L 333.367188 474.230469 L 331.066406 475.28125 L 325.414062 480.144531 C 324.316406 481.085938 324.285156 482.84375 325.335938 484.078125 " fill-opacity="1" fill-rule="nonzero"/><path fill="#ffffff" d="M 392.894531 486.96875 L 389.34375 489.289062 L 389.082031 490.234375 Z M 392.894531 486.96875 " fill-opacity="1" fill-rule="nonzero"/><path fill="#ffffff" d="M 282.269531 433.894531 L 304.621094 423.636719 L 307.109375 426.285156 L 318.875 399.308594 L 282.679688 430.4375 C 281.714844 431.265625 281.574219 432.71875 282.269531 433.894531 " fill-opacity="1" fill-rule="nonzero"/><path fill="#ffffff" d="M 490.125 423.402344 L 447.53125 451.242188 L 452.648438 457.207031 L 381.523438 518.347656 L 375.167969 541.996094 C 376.234375 543.007812 377.8125 543.15625 378.832031 542.28125 L 463.332031 469.632812 L 474.015625 482.054688 L 389.515625 554.703125 C 388.417969 555.648438 388.386719 557.410156 389.4375 558.632812 L 396.308594 566.617188 C 397.359375 567.847656 399.101562 568.078125 400.199219 567.128906 L 484.699219 494.484375 L 495.382812 506.914062 L 410.882812 579.558594 C 409.785156 580.5 409.753906 582.261719 410.804688 583.492188 L 417.675781 591.476562 C 418.726562 592.699219 420.46875 592.929688 421.566406 591.988281 L 506.066406 519.34375 L 516.75 531.761719 L 432.25 604.410156 C 431.152344 605.355469 431.121094 607.117188 432.179688 608.339844 L 439.035156 616.324219 C 440.09375 617.558594 441.835938 617.785156 442.933594 616.839844 L 527.433594 544.191406 L 538.117188 556.621094 L 453.617188 629.265625 C 452.519531 630.214844 452.488281 631.96875 453.539062 633.199219 L 460.410156 641.183594 C 461.460938 642.40625 463.207031 642.636719 464.300781 641.695312 L 548.800781 569.050781 L 559.484375 581.476562 L 474.988281 654.125 C 473.890625 655.0625 473.855469 656.824219 474.90625 658.050781 L 481.777344 666.03125 C 482.828125 667.265625 484.574219 667.492188 485.671875 666.546875 L 570.167969 593.898438 L 580.851562 606.328125 L 496.355469 678.972656 C 495.257812 679.921875 495.226562 681.683594 496.28125 682.90625 L 503.144531 690.890625 C 504.195312 692.113281 505.949219 692.34375 507.046875 691.402344 L 591.542969 618.757812 L 602.226562 631.1875 L 517.722656 703.832031 C 516.625 704.773438 516.59375 706.53125 517.648438 707.765625 L 524.511719 715.738281 C 525.570312 716.972656 527.308594 717.199219 528.40625 716.253906 L 612.910156 643.605469 L 623.585938 656.035156 L 539.089844 728.683594 C 537.992188 729.628906 537.960938 731.390625 539.019531 732.613281 L 545.878906 740.597656 C 546.929688 741.820312 548.683594 742.058594 549.773438 741.109375 L 634.269531 668.464844 L 644.964844 680.894531 L 561.324219 752.789062 C 559.753906 754.148438 559.707031 756.675781 561.222656 758.441406 L 573.242188 772.417969 C 577.046875 776.847656 583.339844 777.679688 587.304688 774.273438 L 673.058594 700.546875 C 690.628906 685.441406 691.179688 657.257812 674.28125 637.613281 L 490.125 423.402344 " fill-opacity="1" fill-rule="nonzero"/><path fill="#ffffff" d="M 437.785156 362.527344 L 426.84375 349.800781 L 421.402344 370.046875 Z M 437.785156 362.527344 " fill-opacity="1" fill-rule="nonzero"/><path fill="#ffffff" d="M 74.949219 192.835938 C 76.464844 194.597656 78.96875 194.929688 80.546875 193.570312 L 164.179688 121.675781 L 174.871094 134.105469 L 90.363281 206.75 C 89.265625 207.691406 89.234375 209.449219 90.292969 210.683594 L 97.15625 218.65625 C 98.203125 219.890625 99.949219 220.117188 101.046875 219.179688 L 185.554688 146.523438 L 196.238281 158.953125 L 111.730469 231.597656 C 110.632812 232.546875 110.601562 234.308594 111.660156 235.53125 L 118.523438 243.515625 C 119.574219 244.738281 121.316406 244.976562 122.414062 244.027344 L 206.914062 171.382812 L 217.597656 183.8125 L 133.097656 256.457031 C 132.007812 257.398438 131.96875 259.15625 133.027344 260.390625 L 139.890625 268.371094 C 140.941406 269.597656 142.691406 269.824219 143.789062 268.886719 L 228.28125 196.230469 L 238.972656 208.660156 L 154.472656 281.308594 C 153.375 282.253906 153.335938 284.015625 154.394531 285.238281 L 161.257812 293.222656 C 162.316406 294.453125 164.058594 294.683594 165.15625 293.734375 L 249.65625 221.089844 L 260.339844 233.519531 L 175.832031 306.164062 C 174.734375 307.105469 174.703125 308.867188 175.761719 310.097656 L 182.625 318.082031 C 183.675781 319.304688 185.417969 319.53125 186.515625 318.59375 L 271.023438 245.945312 L 281.707031 258.367188 L 197.203125 331.015625 C 196.105469 331.960938 196.070312 333.722656 197.128906 334.945312 L 203.992188 342.929688 C 205.042969 344.160156 206.796875 344.390625 207.894531 343.441406 L 292.390625 270.796875 L 303.074219 283.226562 L 218.578125 355.871094 C 217.480469 356.820312 217.441406 358.574219 218.496094 359.804688 L 225.359375 367.789062 C 226.417969 369.011719 228.164062 369.242188 229.261719 368.300781 L 313.757812 295.65625 L 324.441406 308.074219 L 239.945312 380.730469 C 238.847656 381.667969 238.808594 383.429688 239.863281 384.65625 L 246.726562 392.636719 C 247.785156 393.871094 249.53125 394.097656 250.628906 393.152344 L 335.125 320.503906 L 345.808594 332.933594 L 261.3125 405.578125 C 260.214844 406.527344 260.183594 408.289062 261.234375 409.511719 L 268.09375 417.496094 C 269.152344 418.71875 270.898438 418.949219 271.996094 418.007812 L 333.964844 364.722656 L 369.554688 283.164062 L 211.3125 99.097656 C 194.414062 79.453125 166.476562 75.765625 148.90625 90.871094 L 63.144531 164.605469 C 59.1875 168.011719 59.0625 174.359375 62.867188 178.78125 L 74.949219 192.835938 " fill-opacity="1" fill-rule="nonzero"/></svg>