<svg xmlns="http://www.w3.org/2000/svg" xmlns:xlink="http://www.w3.org/1999/xlink" width="1080" zoomAndPan="magnify" viewBox="0 0 810 809.999993" height="1080" preserveAspectRatio="xMidYMid meet" version="1.0"><defs><clipPath id="f772f82a44"><path d="M 21.769531 337 L 724 337 L 724 744 L 21.769531 744 Z M 21.769531 337 " clip-rule="nonzero"/></clipPath></defs><g clip-path="url(#f772f82a44)"><path fill="#ffffff" d="M 588.609375 743.964844 L 77.433594 743.964844 C 46.550781 743.964844 21.847656 719.261719 21.847656 688.855469 L 21.847656 393.359375 C 21.847656 362.480469 46.550781 337.777344 77.433594 337.777344 L 667.949219 337.777344 C 698.828125 337.777344 723.53125 362.480469 723.53125 393.359375 L 723.53125 614.746094 C 723.53125 627.097656 704.527344 627.097656 704.527344 614.746094 L 704.527344 393.359375 C 704.527344 372.933594 688.375 356.78125 667.949219 356.78125 L 77.433594 356.78125 C 57.003906 356.78125 40.851562 372.933594 40.851562 393.359375 L 40.851562 688.855469 C 40.851562 708.808594 57.003906 724.960938 77.433594 724.960938 L 588.609375 724.960938 C 600.964844 724.960938 600.964844 743.964844 588.609375 743.964844 Z M 588.609375 743.964844 " fill-opacity="1" fill-rule="evenodd"/></g><path fill="#ffffff" d="M 584.335938 703.109375 L 78.382812 703.109375 C 69.832031 703.109375 62.703125 696.457031 62.703125 687.90625 L 62.703125 394.3125 C 62.703125 385.757812 69.832031 378.632812 78.382812 378.632812 L 667 378.632812 C 675.550781 378.632812 682.675781 385.757812 682.675781 394.3125 L 682.675781 608.570312 C 682.675781 620.921875 663.671875 620.921875 663.671875 608.570312 L 663.671875 397.636719 L 81.707031 397.636719 L 81.707031 684.105469 L 584.335938 684.105469 C 596.6875 684.105469 596.6875 703.109375 584.335938 703.109375 Z M 584.335938 703.109375 " fill-opacity="1" fill-rule="evenodd"/><path fill="#ffffff" d="M 193.351562 607.617188 C 156.769531 607.617188 126.839844 577.6875 126.839844 541.109375 C 126.839844 504.527344 156.769531 474.597656 193.351562 474.597656 C 230.40625 474.597656 260.335938 504.527344 260.335938 541.109375 C 260.335938 577.6875 230.40625 607.617188 193.351562 607.617188 Z M 193.351562 493.601562 C 167.222656 493.601562 145.84375 514.980469 145.84375 541.109375 C 145.84375 567.238281 167.222656 588.617188 193.351562 588.617188 C 219.953125 588.617188 241.332031 567.238281 241.332031 541.109375 C 241.332031 514.980469 219.953125 493.601562 193.351562 493.601562 Z M 193.351562 493.601562 " fill-opacity="1" fill-rule="evenodd"/><path fill="#ffffff" d="M 301.667969 607.617188 C 296.441406 607.617188 292.164062 603.34375 292.164062 598.117188 L 292.164062 483.625 C 292.164062 471.273438 311.167969 471.273438 311.167969 483.625 L 311.167969 598.117188 C 311.167969 603.34375 306.894531 607.617188 301.667969 607.617188 Z M 301.667969 607.617188 " fill-opacity="1" fill-rule="evenodd"/><path fill="#ffffff" d="M 336.347656 554.886719 L 301.667969 554.886719 C 296.441406 554.886719 292.164062 550.609375 292.164062 545.382812 L 292.164062 483.625 C 292.164062 478.398438 296.441406 474.125 301.667969 474.125 L 336.347656 474.125 C 389.554688 474.125 389.554688 554.886719 336.347656 554.886719 Z M 311.167969 535.882812 C 328.269531 535.882812 357.726562 540.632812 357.726562 514.503906 C 357.726562 488.851562 328.269531 493.125 311.167969 493.125 Z M 311.167969 535.882812 " fill-opacity="1" fill-rule="evenodd"/><path fill="#ffffff" d="M 476.492188 607.617188 L 431.363281 607.617188 C 420.433594 607.617188 411.410156 598.59375 411.410156 587.664062 L 411.410156 494.078125 C 411.410156 483.148438 420.433594 474.125 431.363281 474.125 L 476.492188 474.125 C 488.847656 474.125 488.847656 493.125 476.492188 493.125 C 471.742188 493.125 430.410156 492.175781 430.410156 494.078125 L 430.410156 587.664062 C 430.410156 590.042969 471.742188 588.617188 476.492188 588.617188 C 488.847656 588.617188 488.847656 607.617188 476.492188 607.617188 Z M 476.492188 607.617188 " fill-opacity="1" fill-rule="evenodd"/><path fill="#ffffff" d="M 476.492188 550.609375 L 420.910156 550.609375 C 408.082031 550.609375 408.082031 531.605469 420.910156 531.605469 L 476.492188 531.605469 C 488.847656 531.605469 488.847656 550.609375 476.492188 550.609375 Z M 476.492188 550.609375 " fill-opacity="1" fill-rule="evenodd"/><path fill="#ffffff" d="M 526.851562 607.617188 C 521.625 607.617188 517.351562 603.34375 517.351562 598.117188 L 517.351562 483.625 C 517.351562 471.273438 536.351562 471.273438 536.351562 483.625 L 536.351562 598.117188 C 536.351562 603.34375 532.078125 607.617188 526.851562 607.617188 Z M 526.851562 607.617188 " fill-opacity="1" fill-rule="evenodd"/><path fill="#ffffff" d="M 609.039062 607.617188 C 603.8125 607.617188 599.539062 603.34375 599.539062 598.117188 L 599.539062 483.625 C 599.539062 471.273438 618.539062 471.273438 618.539062 483.625 L 618.539062 598.117188 C 618.539062 603.34375 614.265625 607.617188 609.039062 607.617188 Z M 609.039062 607.617188 " fill-opacity="1" fill-rule="evenodd"/><path fill="#ffffff" d="M 609.039062 607.617188 C 606.1875 607.617188 603.339844 606.195312 601.4375 603.816406 L 519.25 489.324219 C 512.125 478.875 527.328125 467.945312 534.453125 477.921875 L 616.640625 592.890625 C 621.390625 599.066406 616.640625 607.617188 609.039062 607.617188 Z M 609.039062 607.617188 " fill-opacity="1" fill-rule="evenodd"/><path fill="#ffffff" d="M 643.246094 356.78125 C 640.871094 356.78125 638.019531 355.828125 636.59375 353.929688 L 413.785156 131.121094 C 404.757812 122.570312 418.058594 108.792969 427.085938 117.816406 L 649.894531 340.628906 C 655.597656 346.328125 651.320312 356.78125 643.246094 356.78125 Z M 102.136719 356.78125 C 94.058594 356.78125 89.785156 346.328125 95.484375 340.628906 L 318.292969 117.816406 C 327.320312 108.792969 340.621094 122.570312 331.597656 131.121094 L 109.261719 353.929688 C 107.363281 355.828125 104.988281 356.78125 102.136719 356.78125 Z M 102.136719 356.78125 " fill-opacity="1" fill-rule="evenodd"/><path fill="#ffffff" d="M 372.929688 153.921875 C 330.171875 153.921875 295.964844 119.242188 295.964844 76.960938 C 295.964844 34.207031 330.171875 0 372.929688 0 C 415.210938 0 449.414062 34.207031 449.414062 76.960938 C 449.414062 119.242188 415.210938 153.921875 372.929688 153.921875 Z M 372.929688 19.003906 C 340.621094 19.003906 314.96875 44.65625 314.96875 76.960938 C 314.96875 108.792969 340.621094 134.921875 372.929688 134.921875 C 404.757812 134.921875 430.886719 108.792969 430.886719 76.960938 C 430.886719 44.65625 404.757812 19.003906 372.929688 19.003906 Z M 372.929688 19.003906 " fill-opacity="1" fill-rule="evenodd"/><path fill="#ffffff" d="M 679.824219 810 C 621.390625 810 573.882812 762.492188 573.882812 704.535156 C 573.882812 646.101562 621.390625 598.59375 679.824219 598.59375 C 737.785156 598.59375 785.292969 646.101562 785.292969 704.535156 C 785.292969 762.492188 737.785156 810 679.824219 810 Z M 679.824219 617.59375 C 631.84375 617.59375 592.886719 656.550781 592.886719 704.535156 C 592.886719 752.042969 631.84375 790.996094 679.824219 790.996094 C 727.332031 790.996094 766.289062 752.042969 766.289062 704.535156 C 766.289062 656.550781 727.332031 617.59375 679.824219 617.59375 Z M 679.824219 617.59375 " fill-opacity="1" fill-rule="evenodd"/><path fill="#ffffff" d="M 679.824219 643.25 C 666.523438 643.25 670.324219 624.722656 670.324219 608.09375 C 670.324219 595.742188 689.328125 595.742188 689.328125 608.09375 C 689.328125 624.722656 692.652344 643.25 679.824219 643.25 Z M 679.824219 643.25 " fill-opacity="1" fill-rule="evenodd"/><path fill="#ffffff" d="M 775.789062 714.035156 C 759.164062 714.035156 740.632812 717.359375 740.632812 704.535156 C 740.632812 691.230469 759.164062 695.03125 775.789062 695.03125 C 788.140625 695.03125 788.140625 714.035156 775.789062 714.035156 Z M 775.789062 714.035156 " fill-opacity="1" fill-rule="evenodd"/><path fill="#ffffff" d="M 679.824219 810 C 666.523438 810 670.324219 791.472656 670.324219 774.84375 C 670.324219 762.492188 689.328125 762.492188 689.328125 774.84375 C 689.328125 791.472656 692.652344 810 679.824219 810 Z M 679.824219 810 " fill-opacity="1" fill-rule="evenodd"/><path fill="#ffffff" d="M 609.039062 714.035156 C 592.410156 714.035156 573.882812 717.359375 573.882812 704.535156 C 573.882812 691.230469 592.410156 695.03125 609.039062 695.03125 C 621.867188 695.03125 621.867188 714.035156 609.039062 714.035156 Z M 609.039062 714.035156 " fill-opacity="1" fill-rule="evenodd"/><path fill="#ffffff" d="M 720.207031 714.035156 C 660.347656 714.035156 669.375 722.585938 669.375 662.726562 C 669.375 650.375 688.375 650.375 688.375 662.726562 L 688.375 695.03125 L 720.207031 695.03125 C 732.558594 695.03125 732.558594 714.035156 720.207031 714.035156 Z M 720.207031 714.035156 " fill-opacity="1" fill-rule="evenodd"/></svg>