<svg xmlns="http://www.w3.org/2000/svg" xmlns:xlink="http://www.w3.org/1999/xlink" width="1080" zoomAndPan="magnify" viewBox="0 0 810 809.999993" height="1080" preserveAspectRatio="xMidYMid meet" version="1.0"><defs><clipPath id="222de9afd6"><path d="M 180.730469 0 L 629.230469 0 L 629.230469 810 L 180.730469 810 Z M 180.730469 0 " clip-rule="nonzero"/></clipPath></defs><path fill="#ffffff" d="M 327.71875 300.394531 L 318.457031 300.394531 L 318.457031 314.527344 C 318.457031 316.546875 317.980469 318.082031 317.027344 319.125 C 316.074219 320.167969 314.871094 320.691406 313.417969 320.691406 C 311.894531 320.691406 310.667969 320.175781 309.738281 319.140625 C 308.808594 318.109375 308.339844 316.59375 308.339844 314.59375 L 308.339844 276.113281 C 308.339844 273.890625 308.851562 272.300781 309.875 271.34375 C 310.894531 270.394531 312.519531 269.914062 314.746094 269.914062 L 327.71875 269.914062 C 331.554688 269.914062 334.507812 270.210938 336.574219 270.800781 C 338.617188 271.367188 340.382812 272.3125 341.867188 273.628906 C 343.355469 274.945312 344.484375 276.558594 345.257812 278.464844 C 346.03125 280.371094 346.414062 282.515625 346.414062 284.898438 C 346.414062 289.984375 344.847656 293.839844 341.714844 296.460938 C 338.582031 299.085938 333.917969 300.394531 327.71875 300.394531 Z M 405.433594 314.527344 L 405.433594 275.195312 C 405.433594 273.152344 405.898438 271.617188 406.828125 270.597656 C 407.757812 269.574219 408.960938 269.066406 410.4375 269.066406 C 411.960938 269.066406 413.191406 269.570312 414.132812 270.582031 C 415.074219 271.589844 415.546875 273.128906 415.546875 275.195312 L 415.546875 314.527344 C 415.546875 316.59375 415.074219 318.136719 414.132812 319.160156 C 413.191406 320.179688 411.960938 320.691406 410.4375 320.691406 C 408.984375 320.691406 407.789062 320.175781 406.84375 319.140625 C 405.902344 318.109375 405.433594 316.570312 405.433594 314.527344 Z M 368.449219 298.488281 L 364.90625 298.488281 L 364.90625 314.527344 C 364.90625 316.636719 364.441406 318.195312 363.511719 319.191406 C 362.578125 320.191406 361.367188 320.691406 359.867188 320.691406 C 358.253906 320.691406 357.003906 320.167969 356.121094 319.125 C 355.234375 318.082031 354.792969 316.546875 354.792969 314.527344 L 354.792969 276.113281 C 354.792969 273.933594 355.28125 272.355469 356.257812 271.378906 C 357.234375 270.40625 358.8125 269.914062 360.988281 269.914062 L 377.4375 269.914062 C 379.710938 269.914062 381.652344 270.011719 383.261719 270.207031 C 384.875 270.398438 386.328125 270.789062 387.621094 271.378906 C 389.1875 272.039062 390.574219 272.980469 391.777344 274.207031 C 392.980469 275.433594 393.890625 276.859375 394.515625 278.480469 C 395.140625 280.105469 395.453125 281.824219 395.453125 283.640625 C 395.453125 287.363281 394.402344 290.335938 392.304688 292.5625 C 390.203125 294.789062 387.019531 296.363281 382.75 297.296875 C 384.546875 298.25 386.257812 299.65625 387.894531 301.519531 C 389.527344 303.382812 390.988281 305.359375 392.269531 307.460938 C 393.554688 309.558594 394.550781 311.457031 395.265625 313.148438 C 395.980469 314.839844 396.339844 316.003906 396.339844 316.636719 C 396.339844 317.296875 396.128906 317.949219 395.710938 318.597656 C 395.289062 319.246094 394.714844 319.753906 393.988281 320.128906 C 393.265625 320.503906 392.421875 320.691406 391.46875 320.691406 C 390.335938 320.691406 389.378906 320.425781 388.609375 319.890625 C 387.835938 319.359375 387.171875 318.679688 386.617188 317.863281 C 386.0625 317.046875 385.304688 315.84375 384.351562 314.257812 L 380.300781 307.511719 C 378.847656 305.039062 377.546875 303.152344 376.398438 301.859375 C 375.253906 300.566406 374.089844 299.679688 372.910156 299.203125 C 371.730469 298.726562 370.242188 298.488281 368.449219 298.488281 Z M 469.386719 304.074219 C 469.386719 305.660156 468.996094 307.382812 468.210938 309.234375 C 467.429688 311.082031 466.199219 312.898438 464.515625 314.679688 C 462.839844 316.464844 460.691406 317.910156 458.082031 319.023438 C 455.46875 320.136719 452.425781 320.691406 448.953125 320.691406 C 446.320312 320.691406 443.925781 320.441406 441.769531 319.941406 C 439.613281 319.441406 437.652344 318.667969 435.894531 317.609375 C 434.136719 316.554688 432.515625 315.164062 431.042969 313.4375 C 429.726562 311.871094 428.601562 310.117188 427.671875 308.175781 C 426.738281 306.234375 426.042969 304.164062 425.574219 301.960938 C 425.109375 299.757812 424.878906 297.421875 424.878906 294.945312 C 424.878906 290.925781 425.460938 287.328125 426.632812 284.148438 C 427.800781 280.972656 429.472656 278.253906 431.65625 275.996094 C 433.835938 273.734375 436.386719 272.015625 439.316406 270.835938 C 442.246094 269.65625 445.367188 269.066406 448.683594 269.066406 C 452.722656 269.066406 456.320312 269.871094 459.476562 271.480469 C 462.632812 273.09375 465.050781 275.085938 466.730469 277.460938 C 468.410156 279.832031 469.25 282.074219 469.25 284.183594 C 469.25 285.34375 468.84375 286.363281 468.023438 287.25 C 467.207031 288.136719 466.222656 288.578125 465.0625 288.578125 C 463.765625 288.578125 462.796875 288.269531 462.148438 287.65625 C 461.503906 287.046875 460.78125 285.988281 459.988281 284.492188 C 458.671875 282.015625 457.121094 280.164062 455.339844 278.941406 C 453.558594 277.714844 451.363281 277.101562 448.75 277.101562 C 444.597656 277.101562 441.285156 278.679688 438.824219 281.835938 C 436.359375 284.992188 435.128906 289.472656 435.128906 295.289062 C 435.128906 299.167969 435.671875 302.398438 436.761719 304.976562 C 437.851562 307.550781 439.394531 309.476562 441.394531 310.746094 C 443.390625 312.019531 445.730469 312.652344 448.410156 312.652344 C 451.316406 312.652344 453.773438 311.933594 455.78125 310.492188 C 457.792969 309.050781 459.308594 306.933594 460.328125 304.140625 C 460.761719 302.824219 461.292969 301.753906 461.929688 300.921875 C 462.5625 300.09375 463.585938 299.679688 464.992188 299.679688 C 466.199219 299.679688 467.230469 300.101562 468.09375 300.941406 C 468.957031 301.777344 469.386719 302.824219 469.386719 304.074219 Z M 511.378906 277.714844 L 488.59375 277.714844 L 488.59375 289.976562 L 509.570312 289.976562 C 511.113281 289.976562 512.265625 290.320312 513.027344 291.011719 C 513.789062 291.707031 514.167969 292.621094 514.167969 293.753906 C 514.167969 294.890625 513.792969 295.816406 513.046875 296.53125 C 512.296875 297.246094 511.136719 297.601562 509.570312 297.601562 L 488.59375 297.601562 L 488.59375 311.804688 L 512.160156 311.804688 C 513.75 311.804688 514.945312 312.171875 515.753906 312.910156 C 516.558594 313.648438 516.960938 314.628906 516.960938 315.855469 C 516.960938 317.035156 516.558594 317.996094 515.753906 318.734375 C 514.945312 319.472656 513.75 319.839844 512.160156 319.839844 L 484.675781 319.839844 C 482.476562 319.839844 480.890625 319.351562 479.925781 318.375 C 478.960938 317.398438 478.480469 315.820312 478.480469 313.644531 L 478.480469 276.113281 C 478.480469 274.660156 478.695312 273.476562 479.128906 272.554688 C 479.558594 271.636719 480.234375 270.964844 481.152344 270.546875 C 482.074219 270.125 483.246094 269.914062 484.675781 269.914062 L 511.378906 269.914062 C 512.988281 269.914062 514.183594 270.273438 514.96875 270.988281 C 515.753906 271.703125 516.144531 272.640625 516.144531 273.796875 C 516.144531 274.980469 515.753906 275.925781 514.96875 276.640625 C 514.183594 277.355469 512.988281 277.714844 511.378906 277.714844 Z M 325.265625 277.507812 L 318.457031 277.507812 L 318.457031 292.765625 L 325.265625 292.765625 C 327.652344 292.765625 329.640625 292.515625 331.242188 292.019531 C 332.84375 291.519531 334.0625 290.699219 334.902344 289.566406 C 335.746094 288.429688 336.164062 286.941406 336.164062 285.105469 C 336.164062 282.902344 335.515625 281.109375 334.222656 279.722656 C 332.769531 278.246094 329.785156 277.507812 325.265625 277.507812 Z M 374.238281 277.507812 L 364.90625 277.507812 L 364.90625 291.234375 L 373.964844 291.234375 C 376.394531 291.234375 378.4375 291.023438 380.09375 290.601562 C 381.753906 290.183594 383.019531 289.46875 383.890625 288.457031 C 384.765625 287.449219 385.203125 286.058594 385.203125 284.285156 C 385.203125 282.902344 384.851562 281.683594 384.148438 280.625 C 383.441406 279.570312 382.46875 278.78125 381.21875 278.257812 C 380.039062 277.761719 377.710938 277.507812 374.238281 277.507812 Z M 374.238281 277.507812 " fill-opacity="1" fill-rule="nonzero"/><g clip-path="url(#222de9afd6)"><path fill="#ffffff" d="M 383.492188 34.597656 L 236.515625 185.613281 C 235.851562 186.296875 235.308594 187.050781 234.886719 187.851562 L 190.34375 187.851562 C 185.023438 187.851562 180.707031 192.167969 180.707031 197.488281 L 180.707031 800.042969 C 180.707031 805.367188 185.023438 809.683594 190.34375 809.683594 L 619.539062 809.683594 C 624.863281 809.683594 629.175781 805.367188 629.175781 800.042969 L 629.175781 197.488281 C 629.175781 192.167969 624.863281 187.851562 619.539062 187.851562 L 578.464844 187.851562 C 578.042969 186.660156 577.378906 185.53125 576.46875 184.542969 L 436.503906 32.601562 C 436.855469 30.925781 437.035156 29.199219 437.023438 27.425781 C 436.929688 13.242188 424.8125 0.351562 409.757812 0.441406 C 394.703125 0.527344 382.371094 13.5625 382.460938 27.75 C 382.476562 30.125 382.835938 32.421875 383.492188 34.597656 Z M 609.902344 207.125 L 609.902344 790.40625 C 609.902344 790.40625 199.980469 790.40625 199.980469 790.40625 C 199.980469 790.40625 199.980469 283.675781 199.980469 207.125 Z M 596.234375 232.175781 C 596.234375 226.851562 591.917969 222.539062 586.597656 222.539062 L 224.230469 222.539062 C 218.90625 222.539062 214.59375 226.851562 214.59375 232.175781 L 214.59375 772.28125 C 214.59375 777.605469 218.90625 781.917969 224.230469 781.917969 L 586.597656 781.917969 C 591.917969 781.917969 596.234375 777.605469 596.234375 772.28125 Z M 576.960938 241.8125 L 576.960938 762.644531 C 576.960938 762.644531 233.871094 762.644531 233.871094 762.644531 C 233.871094 762.644531 233.871094 241.8125 233.871094 241.8125 C 233.871094 241.8125 576.960938 241.8125 576.960938 241.8125 Z M 395.175781 712.8125 L 541.765625 713.234375 C 547.085938 713.246094 551.417969 708.941406 551.433594 703.621094 C 551.445312 698.300781 547.140625 693.972656 541.820312 693.957031 L 395.230469 693.539062 C 389.910156 693.523438 385.582031 697.828125 385.566406 703.148438 C 385.550781 708.46875 389.859375 712.796875 395.175781 712.8125 Z M 281.488281 712.492188 L 350.539062 712.6875 C 355.859375 712.703125 360.191406 708.394531 360.203125 703.078125 C 360.21875 697.757812 355.914062 693.425781 350.59375 693.410156 L 281.542969 693.214844 C 276.222656 693.203125 271.890625 697.507812 271.875 702.824219 C 271.863281 708.144531 276.167969 712.476562 281.488281 712.492188 Z M 392.707031 654.289062 L 539.300781 654.707031 C 544.617188 654.71875 548.949219 650.414062 548.964844 645.09375 C 548.980469 639.777344 544.671875 635.445312 539.351562 635.429688 L 392.761719 635.011719 C 387.445312 635 383.113281 639.304688 383.097656 644.621094 C 383.082031 649.941406 387.390625 654.273438 392.707031 654.289062 Z M 279.019531 653.964844 L 348.070312 654.160156 C 353.390625 654.175781 357.71875 649.871094 357.734375 644.550781 C 357.75 639.230469 353.445312 634.902344 348.125 634.886719 L 279.074219 634.691406 C 273.753906 634.675781 269.425781 638.980469 269.410156 644.300781 C 269.394531 649.617188 273.699219 653.949219 279.019531 653.964844 Z M 394.367188 589.023438 L 540.957031 589.4375 C 546.277344 589.453125 550.609375 585.148438 550.621094 579.832031 C 550.636719 574.511719 546.332031 570.179688 541.011719 570.164062 L 394.421875 569.746094 C 389.101562 569.730469 384.769531 574.039062 384.757812 579.359375 C 384.742188 584.675781 389.046875 589.007812 394.367188 589.023438 Z M 280.675781 588.699219 L 349.730469 588.894531 C 355.050781 588.910156 359.378906 584.605469 359.394531 579.285156 C 359.410156 573.96875 355.101562 569.636719 349.785156 569.621094 L 280.734375 569.421875 C 275.414062 569.410156 271.082031 573.714844 271.066406 579.035156 C 271.050781 584.355469 275.359375 588.683594 280.675781 588.699219 Z M 395.296875 521.371094 L 541.886719 521.789062 C 547.207031 521.804688 551.535156 517.5 551.550781 512.179688 C 551.566406 506.859375 547.261719 502.53125 541.941406 502.515625 L 395.351562 502.097656 C 390.035156 502.082031 385.703125 506.390625 385.6875 511.707031 C 385.671875 517.027344 389.976562 521.359375 395.296875 521.371094 Z M 281.609375 521.050781 L 350.660156 521.246094 C 355.976562 521.261719 360.308594 516.953125 360.324219 511.636719 C 360.339844 506.316406 356.035156 501.984375 350.714844 501.972656 L 281.664062 501.773438 C 276.34375 501.761719 272.011719 506.066406 271.996094 511.382812 C 271.980469 516.703125 276.289062 521.035156 281.609375 521.050781 Z M 394.78125 458.980469 L 541.371094 459.402344 C 546.6875 459.414062 551.019531 455.109375 551.035156 449.789062 C 551.050781 444.46875 546.746094 440.140625 541.425781 440.125 L 394.835938 439.707031 C 389.515625 439.695312 385.1875 444 385.171875 449.316406 C 385.15625 454.636719 389.460938 458.96875 394.78125 458.980469 Z M 281.089844 458.660156 L 350.144531 458.855469 C 355.460938 458.871094 359.792969 454.5625 359.808594 449.246094 C 359.824219 443.925781 355.515625 439.59375 350.199219 439.582031 L 281.144531 439.386719 C 275.824219 439.371094 271.496094 443.675781 271.480469 448.992188 C 271.464844 454.3125 275.773438 458.644531 281.089844 458.660156 Z M 395.800781 400.765625 L 542.390625 401.179688 C 547.710938 401.195312 552.039062 396.890625 552.054688 391.574219 C 552.070312 386.253906 547.765625 381.921875 542.445312 381.90625 L 395.855469 381.488281 C 390.535156 381.472656 386.207031 385.78125 386.191406 391.101562 C 386.175781 396.417969 390.484375 400.75 395.800781 400.765625 Z M 282.113281 400.441406 L 351.164062 400.636719 C 356.484375 400.652344 360.8125 396.347656 360.828125 391.027344 C 360.84375 385.710938 356.535156 381.378906 351.21875 381.363281 L 282.164062 381.167969 C 276.847656 381.152344 272.515625 385.457031 272.5 390.777344 C 272.484375 396.09375 276.792969 400.425781 282.113281 400.441406 Z M 425.191406 48.769531 C 420.84375 51.59375 415.585938 53.257812 409.910156 53.289062 C 404.734375 53.320312 399.882812 51.988281 395.742188 49.648438 L 261.230469 187.851562 L 553.308594 187.851562 Z M 425.191406 48.769531 " fill-opacity="1" fill-rule="evenodd"/></g></svg>