<svg xmlns="http://www.w3.org/2000/svg" xmlns:xlink="http://www.w3.org/1999/xlink" width="400" zoomAndPan="magnify" viewBox="0 0 300 127.500001" height="170" preserveAspectRatio="xMidYMid meet" version="1.0"><defs><g/><clipPath id="1c03e4a2e4"><path d="M 227.894531 0 L 297.140625 0 L 297.140625 69.246094 L 227.894531 69.246094 Z M 227.894531 0 " clip-rule="nonzero"/></clipPath></defs><g clip-path="url(#1c03e4a2e4)"><path fill="#ffffff" d="M 264.726562 36.828125 L 297.179688 34.644531 L 264.726562 32.457031 L 262.539062 0 L 260.351562 32.457031 L 227.894531 34.644531 L 260.351562 36.828125 L 262.539062 69.285156 Z M 264.726562 36.828125 " fill-opacity="1" fill-rule="nonzero"/></g><path fill="#ffffff" d="M 262.539062 36.367188 L 276.210938 48.3125 L 264.261719 34.644531 L 276.210938 20.972656 L 262.539062 32.917969 L 248.871094 20.972656 L 260.8125 34.644531 L 248.871094 48.3125 Z M 262.539062 36.367188 " fill-opacity="1" fill-rule="nonzero"/><g fill="#ffffff" fill-opacity="1"><g transform="translate(2.845336, 85.778654)"><g><path d="M 37.109375 -26.59375 L 44.8125 -26.3125 L 63.125 -26.3125 L 62.0625 -25.15625 C 59.425781 -25.15625 57.53125 -24.414062 56.375 -22.9375 C 55.664062 -21.96875 55.070312 -20.984375 54.59375 -19.984375 C 54.113281 -18.992188 53.757812 -18.273438 53.53125 -17.828125 C 53.3125 -17.378906 53.054688 -16.703125 52.765625 -15.796875 C 52.472656 -14.898438 52.28125 -14.273438 52.1875 -13.921875 C 52.09375 -13.566406 51.867188 -12.859375 51.515625 -11.796875 C 51.160156 -10.742188 50.867188 -9.796875 50.640625 -8.953125 C 50.421875 -8.117188 49.890625 -6.144531 49.046875 -3.03125 C 48.210938 0.0820312 47.570312 2.378906 47.125 3.859375 C 46.675781 5.335938 45.96875 7.375 45 9.96875 C 44.039062 12.570312 43.113281 14.710938 42.21875 16.390625 C 37.96875 23.898438 32.441406 29.003906 25.640625 31.703125 C 22.554688 32.921875 19.695312 33.53125 17.0625 33.53125 C 14.425781 33.53125 11.851562 32.96875 9.34375 31.84375 C 6.84375 30.726562 5.078125 29.078125 4.046875 26.890625 C 3.398438 25.671875 3.078125 24.351562 3.078125 22.9375 L 3.078125 19.859375 C 3.078125 18.890625 3.460938 18.40625 4.234375 18.40625 C 4.367188 18.40625 4.4375 18.46875 4.4375 18.59375 L 4.234375 21.015625 C 4.234375 23.898438 5.148438 26.128906 6.984375 27.703125 C 8.816406 29.273438 11.210938 30.0625 14.171875 30.0625 C 21.878906 30.0625 28.6875 26.335938 34.59375 18.890625 C 39.09375 13.296875 42.789062 6.867188 45.6875 -0.390625 C 46.070312 -1.484375 46.726562 -3.25 47.65625 -5.6875 C 48.59375 -8.125 49.253906 -9.796875 49.640625 -10.703125 C 47.066406 -6.910156 43.238281 -3.664062 38.15625 -0.96875 C 33.082031 1.726562 28.171875 3.078125 23.421875 3.078125 C 23.285156 3.078125 23.15625 3.078125 23.03125 3.078125 C 17.695312 3.078125 13.132812 1.695312 9.34375 -1.0625 C 5.550781 -3.820312 3.65625 -8.007812 3.65625 -13.625 C 3.65625 -19.25 5.328125 -24.9375 8.671875 -30.6875 C 12.015625 -36.445312 16.320312 -41.316406 21.59375 -45.296875 C 28.332031 -50.367188 35.625 -52.90625 43.46875 -52.90625 C 47 -52.90625 50.066406 -52.28125 52.671875 -51.03125 C 55.273438 -49.78125 56.578125 -48.125 56.578125 -46.0625 C 56.578125 -45.164062 55.976562 -43.738281 54.78125 -41.78125 C 53.59375 -39.820312 52.84375 -38.390625 52.53125 -37.484375 C 52.394531 -37.035156 51.910156 -36.78125 51.078125 -36.71875 C 50.816406 -36.78125 50.6875 -36.878906 50.6875 -37.015625 C 51.78125 -38.804688 52.328125 -40.828125 52.328125 -43.078125 C 52.328125 -45.328125 51.972656 -47.09375 51.265625 -48.375 C 50.046875 -50.4375 47.671875 -51.46875 44.140625 -51.46875 C 37.585938 -51.46875 31.195312 -48.832031 24.96875 -43.5625 C 20.40625 -39.507812 16.660156 -34.671875 13.734375 -29.046875 C 10.804688 -23.429688 9.34375 -18.179688 9.34375 -13.296875 C 9.34375 -8.410156 10.675781 -4.765625 13.34375 -2.359375 C 16.007812 0.046875 19.367188 1.25 23.421875 1.25 C 23.484375 1.25 23.578125 1.25 23.703125 1.25 C 30.960938 1.25 37.160156 -1.171875 42.296875 -6.015625 C 47.441406 -10.867188 51.269531 -17.023438 53.78125 -24.484375 L 43.84375 -24.484375 C 35.625 -24.484375 31.515625 -22.585938 31.515625 -18.796875 C 31.515625 -17.765625 31.675781 -16.925781 32 -16.28125 L 31.125 -15.703125 C 29.394531 -18.597656 28.53125 -20.207031 28.53125 -20.53125 C 28.53125 -20.851562 28.53125 -21.171875 28.53125 -21.484375 C 28.53125 -22.960938 28.914062 -24.054688 29.6875 -24.765625 C 31.226562 -25.984375 33.703125 -26.59375 37.109375 -26.59375 Z M 37.109375 -26.59375 "/></g></g></g><g fill="#ffffff" fill-opacity="1"><g transform="translate(58.346192, 85.778654)"><g><path d="M 37.875 -59.078125 C 39.476562 -59.078125 40.28125 -58.050781 40.28125 -56 C 40.28125 -52.59375 37.488281 -47.097656 31.90625 -39.515625 C 27.144531 -32.898438 20.523438 -25.769531 12.046875 -18.125 C 10.378906 -15.039062 9.125 -11.726562 8.28125 -8.1875 C 8.09375 -7.476562 8 -6.804688 8 -6.171875 C 8 -3.660156 9.1875 -2.40625 11.5625 -2.40625 C 11.945312 -2.40625 12.363281 -2.4375 12.8125 -2.5 C 15.507812 -3.019531 19.816406 -6.941406 25.734375 -14.265625 C 25.859375 -14.140625 25.921875 -13.863281 25.921875 -13.4375 C 25.921875 -13.019531 25.082031 -11.765625 23.40625 -9.671875 C 21.738281 -7.585938 20.488281 -6.128906 19.65625 -5.296875 C 16 -1.640625 12.691406 0.1875 9.734375 0.1875 C 6.390625 0.1875 4.71875 -1.414062 4.71875 -4.625 C 4.71875 -7.195312 5.75 -10.734375 7.8125 -15.234375 L 3.765625 -10.796875 C 3.304688 -10.148438 3.078125 -10.210938 3.078125 -10.984375 C 3.078125 -11.492188 3.316406 -12.054688 3.796875 -12.671875 C 4.285156 -13.285156 5.269531 -14.457031 6.75 -16.1875 C 8.226562 -17.925781 9.316406 -19.210938 10.015625 -20.046875 C 10.921875 -21.710938 12.753906 -25.34375 15.515625 -30.9375 C 21.359375 -42.757812 25.726562 -50.597656 28.625 -54.453125 C 29.332031 -54.710938 30.726562 -55.546875 32.8125 -56.953125 C 34.90625 -58.367188 36.59375 -59.078125 37.875 -59.078125 Z M 30.265625 -40.484375 C 34.828125 -47.929688 37.109375 -53.164062 37.109375 -56.1875 C 37.109375 -56.957031 36.816406 -57.34375 36.234375 -57.34375 C 34.117188 -57.34375 29.941406 -51.753906 23.703125 -40.578125 C 18.441406 -31.066406 15.101562 -24.863281 13.6875 -21.96875 C 20.039062 -27.238281 25.566406 -33.410156 30.265625 -40.484375 Z M 30.265625 -40.484375 "/></g></g></g><g fill="#ffffff" fill-opacity="1"><g transform="translate(78.966308, 85.778654)"><g><path d="M 33.4375 -14.265625 C 33.570312 -14.140625 33.640625 -13.882812 33.640625 -13.5 C 33.640625 -13.113281 33.1875 -12.304688 32.28125 -11.078125 C 26.5625 -3.492188 21.265625 0.296875 16.390625 0.296875 C 14.847656 0.296875 14.078125 -0.316406 14.078125 -1.546875 C 14.078125 -3.796875 15.328125 -6.878906 17.828125 -10.796875 C 15.578125 -8.421875 13.003906 -5.992188 10.109375 -3.515625 C 7.222656 -1.046875 4.53125 0.1875 2.03125 0.1875 C 0.875 0.1875 0.296875 -0.515625 0.296875 -1.921875 C 0.296875 -2.242188 0.328125 -2.472656 0.390625 -2.609375 C 0.835938 -6.265625 2.3125 -10.117188 4.8125 -14.171875 C 9.832031 -22.265625 15.039062 -26.3125 20.4375 -26.3125 L 31.515625 -26.3125 C 31.835938 -26.3125 32 -26.179688 32 -25.921875 C 32 -25.410156 31.707031 -25.15625 31.125 -25.15625 C 30.226562 -25.15625 29.101562 -24.109375 27.75 -22.015625 C 26.40625 -19.929688 24.625 -16.71875 22.40625 -12.375 C 20.1875 -8.039062 19.078125 -5.3125 19.078125 -4.1875 C 19.078125 -3.0625 19.53125 -2.5 20.4375 -2.5 C 21.90625 -2.5 23.957031 -3.785156 26.59375 -6.359375 C 28.007812 -7.835938 29.070312 -8.992188 29.78125 -9.828125 C 30.488281 -10.660156 30.953125 -11.207031 31.171875 -11.46875 C 31.398438 -11.726562 32.15625 -12.660156 33.4375 -14.265625 Z M 23.125 -23.21875 C 23.125 -24.445312 22.304688 -25.0625 20.671875 -25.0625 C 19.035156 -25.0625 17.21875 -24.128906 15.21875 -22.265625 C 13.226562 -20.398438 11.0625 -17.394531 8.71875 -13.25 C 6.375 -9.101562 5.203125 -6.097656 5.203125 -4.234375 C 5.203125 -3.460938 5.457031 -3.078125 5.96875 -3.078125 C 7.832031 -3.078125 11.15625 -5.921875 15.9375 -11.609375 C 20.726562 -17.296875 23.125 -21.164062 23.125 -23.21875 Z M 23.125 -23.21875 "/></g></g></g><g fill="#ffffff" fill-opacity="1"><g transform="translate(107.294865, 85.778654)"><g><path d="M 45.96875 -24.96875 C 45.96875 -24.125 45.421875 -22.898438 44.328125 -21.296875 C 43.234375 -19.691406 41.578125 -16.71875 39.359375 -12.375 C 37.148438 -8.039062 36.046875 -5.3125 36.046875 -4.1875 C 36.046875 -3.0625 36.492188 -2.5 37.390625 -2.5 C 38.546875 -2.5 40.164062 -3.445312 42.25 -5.34375 C 44.34375 -7.238281 46.160156 -9.085938 47.703125 -10.890625 C 49.242188 -12.691406 50.113281 -13.785156 50.3125 -14.171875 C 50.4375 -13.972656 50.5 -13.679688 50.5 -13.296875 C 50.5 -12.910156 50.082031 -12.171875 49.25 -11.078125 C 43.851562 -3.816406 38.742188 0.00390625 33.921875 0.390625 C 33.148438 0.453125 32.472656 0.304688 31.890625 -0.046875 C 31.316406 -0.398438 31.03125 -0.878906 31.03125 -1.484375 C 31.03125 -2.097656 31.191406 -2.898438 31.515625 -3.890625 C 31.835938 -4.890625 32.160156 -5.742188 32.484375 -6.453125 C 33.828125 -9.472656 35.09375 -12.109375 36.28125 -14.359375 C 37.46875 -16.609375 38.707031 -19.144531 40 -21.96875 C 40.632812 -23.320312 40.179688 -23.582031 38.640625 -22.75 C 34.535156 -20.175781 30.265625 -15.804688 25.828125 -9.640625 C 23.578125 -6.617188 22.128906 -3.953125 21.484375 -1.640625 C 20.585938 -0.867188 19.800781 -0.609375 19.125 -0.859375 C 18.457031 -1.117188 18.125 -1.78125 18.125 -2.84375 C 18.125 -3.90625 19.179688 -6.75 21.296875 -11.375 C 23.484375 -15.613281 25.21875 -19.144531 26.5 -21.96875 C 27.144531 -23.320312 26.695312 -23.582031 25.15625 -22.75 C 23.03125 -21.394531 20.503906 -19.238281 17.578125 -16.28125 C 14.660156 -13.332031 12.523438 -10.316406 11.171875 -7.234375 C 10.597656 -5.878906 9.570312 -3.40625 8.09375 0.1875 C 7.707031 0.1875 6.953125 0.394531 5.828125 0.8125 C 4.703125 1.238281 4.046875 1.453125 3.859375 1.453125 C 3.597656 1.453125 3.613281 1.144531 3.90625 0.53125 C 4.195312 -0.0820312 4.742188 -1.351562 5.546875 -3.28125 C 6.347656 -5.207031 7.328125 -7.644531 8.484375 -10.59375 C 10.734375 -16.25 12.242188 -19.976562 13.015625 -21.78125 C 9.609375 -18.113281 6.523438 -14.453125 3.765625 -10.796875 C 3.304688 -10.148438 3.078125 -10.210938 3.078125 -10.984375 C 3.078125 -11.492188 3.238281 -11.945312 3.5625 -12.34375 C 8.125 -17.988281 11.628906 -22.582031 14.078125 -26.125 C 17.285156 -26.570312 19.144531 -27.019531 19.65625 -27.46875 C 20.175781 -27.914062 20.5 -28.140625 20.625 -28.140625 C 20.75 -28.140625 20.828125 -28.007812 20.859375 -27.75 C 20.890625 -27.5 20.695312 -27.128906 20.28125 -26.640625 C 19.863281 -26.160156 17.34375 -21.617188 12.71875 -13.015625 C 13.101562 -13.460938 14.804688 -15.390625 17.828125 -18.796875 C 19.304688 -20.335938 21.203125 -21.972656 23.515625 -23.703125 C 26.148438 -25.628906 28.429688 -26.59375 30.359375 -26.59375 C 31.578125 -26.59375 32.1875 -26.113281 32.1875 -25.15625 C 32.1875 -24.320312 31.832031 -23.390625 31.125 -22.359375 L 26.796875 -14.265625 L 31.328125 -18.796875 C 32.796875 -20.335938 34.691406 -21.972656 37.015625 -23.703125 C 39.640625 -25.628906 41.785156 -26.59375 43.453125 -26.59375 C 45.128906 -26.59375 45.96875 -26.050781 45.96875 -24.96875 Z M 45.96875 -24.96875 "/></g></g></g><g fill="#ffffff" fill-opacity="1"><g transform="translate(152.582029, 85.778654)"><g><path d="M 26.890625 -23.03125 C 26.890625 -19.5625 25.15625 -15.320312 21.6875 -10.3125 C 20.332031 -8.507812 19.109375 -7.097656 18.015625 -6.078125 C 22.265625 -6.078125 26.1875 -8.453125 29.78125 -13.203125 C 30.101562 -13.523438 30.265625 -13.410156 30.265625 -12.859375 C 30.265625 -12.316406 30.132812 -11.882812 29.875 -11.5625 C 26.601562 -7 22.878906 -4.71875 18.703125 -4.71875 C 18.117188 -4.71875 17.539062 -4.75 16.96875 -4.8125 C 13.363281 -1.476562 9.3125 0.1875 4.8125 0.1875 C 2.1875 0.1875 0.875 -0.9375 0.875 -3.1875 C 0.875 -6.84375 2.640625 -11.113281 6.171875 -16 C 8.421875 -19.207031 11.148438 -21.742188 14.359375 -23.609375 C 17.765625 -25.734375 20.65625 -26.796875 23.03125 -26.796875 C 25.601562 -26.796875 26.890625 -25.539062 26.890625 -23.03125 Z M 22.265625 -22.9375 C 22.265625 -24.476562 21.6875 -25.25 20.53125 -25.25 C 20.144531 -25.25 19.40625 -25.039062 18.3125 -24.625 C 17.21875 -24.207031 15.847656 -23.144531 14.203125 -21.4375 C 12.566406 -19.738281 11.015625 -17.570312 9.546875 -14.9375 C 6.773438 -10.375 5.390625 -6.984375 5.390625 -4.765625 C 5.390625 -2.554688 5.96875 -1.453125 7.125 -1.453125 C 8.03125 -1.453125 9.023438 -1.753906 10.109375 -2.359375 C 11.203125 -2.972656 12.070312 -3.597656 12.71875 -4.234375 C 14.707031 -6.359375 16.796875 -9.234375 18.984375 -12.859375 C 21.171875 -16.492188 22.265625 -19.851562 22.265625 -22.9375 Z M 22.265625 -22.9375 "/></g></g></g><g fill="#ffffff" fill-opacity="1"><g transform="translate(178.116282, 85.778654)"><g><path d="M 37.59375 -25.34375 C 35.65625 -24.769531 33.453125 -21.800781 30.984375 -16.4375 C 28.515625 -11.070312 27.28125 -7.40625 27.28125 -5.4375 C 27.28125 -3.476562 27.757812 -2.5 28.71875 -2.5 C 29.875 -2.5 31.769531 -3.53125 34.40625 -5.59375 C 37.226562 -7.769531 39.765625 -10.335938 42.015625 -13.296875 C 42.535156 -13.878906 42.828125 -14.203125 42.890625 -14.265625 C 43.078125 -13.878906 43.140625 -13.476562 43.078125 -13.0625 C 43.015625 -12.644531 42.597656 -11.984375 41.828125 -11.078125 C 36.171875 -3.492188 30.867188 0.296875 25.921875 0.296875 C 23.671875 0.296875 22.546875 -0.570312 22.546875 -2.3125 C 22.546875 -3.46875 22.960938 -5.25 23.796875 -7.65625 C 24.640625 -10.070312 25.414062 -11.953125 26.125 -13.296875 C 19.820312 -4.234375 14.003906 0.296875 8.671875 0.296875 C 7.128906 0.296875 6.359375 -0.316406 6.359375 -1.546875 C 6.359375 -3.085938 7.613281 -6.363281 10.125 -11.375 C 10.695312 -12.53125 11.460938 -14.101562 12.421875 -16.09375 C 13.390625 -18.082031 14.050781 -19.398438 14.40625 -20.046875 C 14.757812 -20.691406 14.9375 -21.15625 14.9375 -21.4375 C 14.9375 -21.726562 14.84375 -21.875 14.65625 -21.875 C 14.195312 -21.875 12.941406 -20.941406 10.890625 -19.078125 C 8.835938 -17.210938 6.460938 -14.453125 3.765625 -10.796875 C 3.304688 -10.148438 3.078125 -10.210938 3.078125 -10.984375 C 3.078125 -11.492188 3.238281 -11.945312 3.5625 -12.34375 C 6.195312 -15.875 8.332031 -18.550781 9.96875 -20.375 C 11.613281 -22.207031 12.515625 -23.21875 12.671875 -23.40625 C 12.835938 -23.601562 13.191406 -23.941406 13.734375 -24.421875 C 14.273438 -24.910156 14.707031 -25.25 15.03125 -25.4375 C 16.320312 -26.207031 17.6875 -26.59375 19.125 -26.59375 C 20.570312 -26.59375 21.296875 -26.050781 21.296875 -24.96875 C 21.296875 -24.125 20.75 -22.898438 19.65625 -21.296875 C 18.5625 -19.691406 16.90625 -16.71875 14.6875 -12.375 C 12.476562 -8.039062 11.375 -5.3125 11.375 -4.1875 C 11.375 -3.0625 11.820312 -2.5 12.71875 -2.5 C 13.9375 -2.5 15.863281 -3.753906 18.5 -6.265625 C 22.550781 -10.117188 26.726562 -16.160156 31.03125 -24.390625 C 31.613281 -25.410156 32 -25.921875 32.1875 -25.921875 L 33.53125 -25.921875 C 35.59375 -25.921875 37.203125 -26.210938 38.359375 -26.796875 C 38.421875 -26.859375 38.515625 -26.890625 38.640625 -26.890625 C 38.773438 -26.890625 38.84375 -26.757812 38.84375 -26.5 C 38.84375 -25.988281 38.425781 -25.601562 37.59375 -25.34375 Z M 37.59375 -25.34375 "/></g></g></g><g fill="#ffffff" fill-opacity="1"><g transform="translate(215.984058, 85.778654)"><g><path d="M 28.328125 -19.078125 C 28.328125 -22.035156 27.410156 -23.515625 25.578125 -23.515625 C 23.753906 -23.515625 21.15625 -21.570312 17.78125 -17.6875 C 14.40625 -13.800781 11.851562 -9.640625 10.125 -5.203125 L 8.09375 0.1875 C 7.707031 0.1875 6.9375 0.378906 5.78125 0.765625 C 4.625 1.148438 4.015625 1.34375 3.953125 1.34375 C 3.628906 1.34375 3.613281 1.050781 3.90625 0.46875 C 4.195312 -0.101562 4.742188 -1.351562 5.546875 -3.28125 C 6.347656 -5.207031 7.328125 -7.644531 8.484375 -10.59375 C 10.734375 -16.25 12.242188 -19.976562 13.015625 -21.78125 C 9.609375 -18.113281 6.523438 -14.453125 3.765625 -10.796875 C 3.304688 -10.148438 3.078125 -10.210938 3.078125 -10.984375 C 3.078125 -11.492188 3.238281 -11.945312 3.5625 -12.34375 C 8.125 -17.988281 11.628906 -22.582031 14.078125 -26.125 C 17.285156 -26.570312 19.144531 -27.019531 19.65625 -27.46875 C 20.175781 -27.914062 20.5 -28.140625 20.625 -28.140625 C 20.75 -28.140625 20.828125 -28.007812 20.859375 -27.75 C 20.890625 -27.5 20.710938 -27.144531 20.328125 -26.6875 C 19.941406 -26.238281 17.789062 -22.421875 13.875 -15.234375 C 15.613281 -17.859375 17.816406 -20.457031 20.484375 -23.03125 C 23.148438 -25.601562 25.429688 -26.890625 27.328125 -26.890625 C 29.222656 -26.890625 30.457031 -26.085938 31.03125 -24.484375 C 31.289062 -24.160156 31.421875 -23.804688 31.421875 -23.421875 C 31.421875 -23.035156 31.351562 -22.535156 31.21875 -21.921875 C 31.09375 -21.316406 30.96875 -20.820312 30.84375 -20.4375 C 30.132812 -18.820312 29.617188 -17.859375 29.296875 -17.546875 C 29.109375 -17.222656 28.785156 -17.03125 28.328125 -16.96875 C 28.265625 -17.03125 28.203125 -17.09375 28.140625 -17.15625 C 28.265625 -17.863281 28.328125 -18.503906 28.328125 -19.078125 Z M 28.328125 -19.078125 "/></g></g></g><g fill="#ffffff" fill-opacity="1"><g transform="translate(62.0309, 117.224555)"><g><path d="M 3.53125 0.125 C 2.96875 0.125 2.460938 -0.0390625 2.015625 -0.375 C 1.566406 -0.707031 1.234375 -1.148438 1.015625 -1.703125 C 0.992188 -1.753906 0.984375 -1.796875 0.984375 -1.828125 C 0.984375 -1.898438 1.007812 -1.957031 1.0625 -2 C 1.125 -2.050781 1.1875 -2.078125 1.25 -2.078125 C 1.363281 -2.078125 1.445312 -2.019531 1.5 -1.90625 C 1.664062 -1.457031 1.929688 -1.09375 2.296875 -0.8125 C 2.660156 -0.53125 3.070312 -0.390625 3.53125 -0.390625 C 4.207031 -0.390625 4.742188 -0.59375 5.140625 -1 C 5.546875 -1.40625 5.75 -1.945312 5.75 -2.625 L 5.75 -8.984375 C 5.75 -9.046875 5.773438 -9.101562 5.828125 -9.15625 C 5.890625 -9.21875 5.960938 -9.25 6.046875 -9.25 C 6.128906 -9.25 6.191406 -9.21875 6.234375 -9.15625 C 6.285156 -9.101562 6.3125 -9.046875 6.3125 -8.984375 L 6.3125 -2.625 C 6.3125 -2.082031 6.191406 -1.597656 5.953125 -1.171875 C 5.722656 -0.753906 5.394531 -0.429688 4.96875 -0.203125 C 4.550781 0.015625 4.070312 0.125 3.53125 0.125 Z M 3.53125 0.125 "/></g></g></g><g fill="#ffffff" fill-opacity="1"><g transform="translate(72.04938, 117.224555)"><g><path d="M 9.484375 -4.625 C 9.484375 -3.695312 9.296875 -2.867188 8.921875 -2.140625 C 8.546875 -1.421875 8.019531 -0.863281 7.34375 -0.46875 C 6.675781 -0.0703125 5.914062 0.125 5.0625 0.125 C 4.21875 0.125 3.457031 -0.0703125 2.78125 -0.46875 C 2.113281 -0.863281 1.59375 -1.421875 1.21875 -2.140625 C 0.84375 -2.867188 0.65625 -3.695312 0.65625 -4.625 C 0.65625 -5.539062 0.84375 -6.359375 1.21875 -7.078125 C 1.59375 -7.804688 2.113281 -8.367188 2.78125 -8.765625 C 3.457031 -9.171875 4.21875 -9.375 5.0625 -9.375 C 5.914062 -9.375 6.675781 -9.171875 7.34375 -8.765625 C 8.019531 -8.367188 8.546875 -7.804688 8.921875 -7.078125 C 9.296875 -6.359375 9.484375 -5.539062 9.484375 -4.625 Z M 8.921875 -4.625 C 8.921875 -5.445312 8.757812 -6.179688 8.4375 -6.828125 C 8.113281 -7.472656 7.65625 -7.96875 7.0625 -8.3125 C 6.476562 -8.664062 5.8125 -8.84375 5.0625 -8.84375 C 4.320312 -8.84375 3.65625 -8.664062 3.0625 -8.3125 C 2.476562 -7.96875 2.023438 -7.472656 1.703125 -6.828125 C 1.378906 -6.179688 1.21875 -5.445312 1.21875 -4.625 C 1.21875 -3.789062 1.378906 -3.050781 1.703125 -2.40625 C 2.023438 -1.769531 2.476562 -1.273438 3.0625 -0.921875 C 3.65625 -0.566406 4.320312 -0.390625 5.0625 -0.390625 C 5.8125 -0.390625 6.476562 -0.566406 7.0625 -0.921875 C 7.65625 -1.273438 8.113281 -1.769531 8.4375 -2.40625 C 8.757812 -3.050781 8.921875 -3.789062 8.921875 -4.625 Z M 8.921875 -4.625 "/></g></g></g><g fill="#ffffff" fill-opacity="1"><g transform="translate(84.575602, 117.224555)"><g><path d="M 8.09375 -0.359375 C 8.101562 -0.328125 8.109375 -0.289062 8.109375 -0.25 C 8.109375 -0.164062 8.082031 -0.101562 8.03125 -0.0625 C 7.976562 -0.0195312 7.910156 0 7.828125 0 C 7.765625 0 7.707031 -0.015625 7.65625 -0.046875 C 7.613281 -0.078125 7.582031 -0.117188 7.5625 -0.171875 L 6.453125 -2.890625 L 6.46875 -2.859375 L 2.046875 -2.859375 L 0.984375 -0.171875 C 0.929688 -0.0546875 0.847656 0 0.734375 0 C 0.660156 0 0.597656 -0.0195312 0.546875 -0.0625 C 0.492188 -0.101562 0.46875 -0.15625 0.46875 -0.21875 C 0.457031 -0.257812 0.457031 -0.304688 0.46875 -0.359375 L 4.03125 -9.09375 C 4.050781 -9.164062 4.082031 -9.210938 4.125 -9.234375 C 4.164062 -9.253906 4.21875 -9.265625 4.28125 -9.265625 C 4.40625 -9.265625 4.492188 -9.207031 4.546875 -9.09375 Z M 2.25 -3.390625 L 6.265625 -3.390625 L 4.234375 -8.375 Z M 2.25 -3.390625 "/></g></g></g><g fill="#ffffff" fill-opacity="1"><g transform="translate(95.531186, 117.224555)"><g><path d="M 8 -9.25 C 8.082031 -9.25 8.144531 -9.222656 8.1875 -9.171875 C 8.226562 -9.117188 8.25 -9.054688 8.25 -8.984375 L 8.25 -0.296875 C 8.25 -0.191406 8.222656 -0.113281 8.171875 -0.0625 C 8.117188 -0.0195312 8.050781 0 7.96875 0 C 7.882812 0 7.816406 -0.0351562 7.765625 -0.109375 L 1.828125 -8.21875 L 1.828125 -0.21875 C 1.828125 -0.15625 1.800781 -0.101562 1.75 -0.0625 C 1.695312 -0.0195312 1.640625 0 1.578125 0 C 1.492188 0 1.429688 -0.0195312 1.390625 -0.0625 C 1.347656 -0.101562 1.328125 -0.15625 1.328125 -0.21875 L 1.328125 -8.984375 C 1.328125 -9.066406 1.347656 -9.128906 1.390625 -9.171875 C 1.441406 -9.222656 1.5 -9.25 1.5625 -9.25 C 1.632812 -9.25 1.695312 -9.21875 1.75 -9.15625 L 7.75 -0.984375 L 7.75 -8.984375 C 7.75 -9.054688 7.769531 -9.117188 7.8125 -9.171875 C 7.863281 -9.222656 7.925781 -9.25 8 -9.25 Z M 8 -9.25 "/></g></g></g><g fill="#ffffff" fill-opacity="1"><g transform="translate(107.489867, 117.224555)"><g><path d="M 8 -9.25 C 8.082031 -9.25 8.144531 -9.222656 8.1875 -9.171875 C 8.226562 -9.117188 8.25 -9.054688 8.25 -8.984375 L 8.25 -0.296875 C 8.25 -0.191406 8.222656 -0.113281 8.171875 -0.0625 C 8.117188 -0.0195312 8.050781 0 7.96875 0 C 7.882812 0 7.816406 -0.0351562 7.765625 -0.109375 L 1.828125 -8.21875 L 1.828125 -0.21875 C 1.828125 -0.15625 1.800781 -0.101562 1.75 -0.0625 C 1.695312 -0.0195312 1.640625 0 1.578125 0 C 1.492188 0 1.429688 -0.0195312 1.390625 -0.0625 C 1.347656 -0.101562 1.328125 -0.15625 1.328125 -0.21875 L 1.328125 -8.984375 C 1.328125 -9.066406 1.347656 -9.128906 1.390625 -9.171875 C 1.441406 -9.222656 1.5 -9.25 1.5625 -9.25 C 1.632812 -9.25 1.695312 -9.21875 1.75 -9.15625 L 7.75 -0.984375 L 7.75 -8.984375 C 7.75 -9.054688 7.769531 -9.117188 7.8125 -9.171875 C 7.863281 -9.222656 7.925781 -9.25 8 -9.25 Z M 8 -9.25 "/></g></g></g><g fill="#ffffff" fill-opacity="1"><g transform="translate(119.448547, 117.224555)"><g><path d="M 8.09375 -0.359375 C 8.101562 -0.328125 8.109375 -0.289062 8.109375 -0.25 C 8.109375 -0.164062 8.082031 -0.101562 8.03125 -0.0625 C 7.976562 -0.0195312 7.910156 0 7.828125 0 C 7.765625 0 7.707031 -0.015625 7.65625 -0.046875 C 7.613281 -0.078125 7.582031 -0.117188 7.5625 -0.171875 L 6.453125 -2.890625 L 6.46875 -2.859375 L 2.046875 -2.859375 L 0.984375 -0.171875 C 0.929688 -0.0546875 0.847656 0 0.734375 0 C 0.660156 0 0.597656 -0.0195312 0.546875 -0.0625 C 0.492188 -0.101562 0.46875 -0.15625 0.46875 -0.21875 C 0.457031 -0.257812 0.457031 -0.304688 0.46875 -0.359375 L 4.03125 -9.09375 C 4.050781 -9.164062 4.082031 -9.210938 4.125 -9.234375 C 4.164062 -9.253906 4.21875 -9.265625 4.28125 -9.265625 C 4.40625 -9.265625 4.492188 -9.207031 4.546875 -9.09375 Z M 2.25 -3.390625 L 6.265625 -3.390625 L 4.234375 -8.375 Z M 2.25 -3.390625 "/></g></g></g><g fill="#ffffff" fill-opacity="1"><g transform="translate(130.404133, 117.224555)"><g/></g></g><g fill="#ffffff" fill-opacity="1"><g transform="translate(136.357429, 117.224555)"><g><path d="M 9.390625 -9.25 C 9.460938 -9.238281 9.519531 -9.207031 9.5625 -9.15625 C 9.601562 -9.101562 9.625 -9.046875 9.625 -8.984375 L 9.625 -0.265625 C 9.625 -0.191406 9.59375 -0.128906 9.53125 -0.078125 C 9.476562 -0.0234375 9.414062 0 9.34375 0 C 9.269531 0 9.207031 -0.0234375 9.15625 -0.078125 C 9.101562 -0.128906 9.078125 -0.191406 9.078125 -0.265625 L 9.078125 -8.15625 L 5.671875 -3.015625 C 5.617188 -2.941406 5.554688 -2.90625 5.484375 -2.90625 C 5.378906 -2.90625 5.304688 -2.941406 5.265625 -3.015625 L 1.84375 -8.171875 L 1.84375 -0.265625 C 1.84375 -0.191406 1.816406 -0.128906 1.765625 -0.078125 C 1.710938 -0.0234375 1.648438 0 1.578125 0 C 1.503906 0 1.441406 -0.0234375 1.390625 -0.078125 C 1.347656 -0.128906 1.328125 -0.191406 1.328125 -0.265625 L 1.328125 -8.984375 C 1.328125 -9.046875 1.347656 -9.101562 1.390625 -9.15625 C 1.441406 -9.21875 1.503906 -9.25 1.578125 -9.25 C 1.691406 -9.25 1.773438 -9.207031 1.828125 -9.125 L 5.484375 -3.6875 L 9.140625 -9.125 C 9.210938 -9.21875 9.296875 -9.257812 9.390625 -9.25 Z M 9.390625 -9.25 "/></g></g></g><g fill="#ffffff" fill-opacity="1"><g transform="translate(149.688774, 117.224555)"><g><path d="M 9.484375 -4.625 C 9.484375 -3.695312 9.296875 -2.867188 8.921875 -2.140625 C 8.546875 -1.421875 8.019531 -0.863281 7.34375 -0.46875 C 6.675781 -0.0703125 5.914062 0.125 5.0625 0.125 C 4.21875 0.125 3.457031 -0.0703125 2.78125 -0.46875 C 2.113281 -0.863281 1.59375 -1.421875 1.21875 -2.140625 C 0.84375 -2.867188 0.65625 -3.695312 0.65625 -4.625 C 0.65625 -5.539062 0.84375 -6.359375 1.21875 -7.078125 C 1.59375 -7.804688 2.113281 -8.367188 2.78125 -8.765625 C 3.457031 -9.171875 4.21875 -9.375 5.0625 -9.375 C 5.914062 -9.375 6.675781 -9.171875 7.34375 -8.765625 C 8.019531 -8.367188 8.546875 -7.804688 8.921875 -7.078125 C 9.296875 -6.359375 9.484375 -5.539062 9.484375 -4.625 Z M 8.921875 -4.625 C 8.921875 -5.445312 8.757812 -6.179688 8.4375 -6.828125 C 8.113281 -7.472656 7.65625 -7.96875 7.0625 -8.3125 C 6.476562 -8.664062 5.8125 -8.84375 5.0625 -8.84375 C 4.320312 -8.84375 3.65625 -8.664062 3.0625 -8.3125 C 2.476562 -7.96875 2.023438 -7.472656 1.703125 -6.828125 C 1.378906 -6.179688 1.21875 -5.445312 1.21875 -4.625 C 1.21875 -3.789062 1.378906 -3.050781 1.703125 -2.40625 C 2.023438 -1.769531 2.476562 -1.273438 3.0625 -0.921875 C 3.65625 -0.566406 4.320312 -0.390625 5.0625 -0.390625 C 5.8125 -0.390625 6.476562 -0.566406 7.0625 -0.921875 C 7.65625 -1.273438 8.113281 -1.769531 8.4375 -2.40625 C 8.757812 -3.050781 8.921875 -3.789062 8.921875 -4.625 Z M 8.921875 -4.625 "/></g></g></g><g fill="#ffffff" fill-opacity="1"><g transform="translate(162.214999, 117.224555)"><g><path d="M 8.234375 -0.390625 C 8.285156 -0.328125 8.3125 -0.269531 8.3125 -0.21875 C 8.3125 -0.113281 8.273438 -0.0390625 8.203125 0 C 8.140625 0.0390625 8.070312 0.0625 8 0.0625 C 7.925781 0.0625 7.863281 0.03125 7.8125 -0.03125 L 3.859375 -4.921875 L 1.875 -3.09375 L 1.875 -0.28125 C 1.863281 -0.195312 1.832031 -0.128906 1.78125 -0.078125 C 1.726562 -0.0234375 1.664062 0 1.59375 0 C 1.507812 0 1.441406 -0.0234375 1.390625 -0.078125 C 1.347656 -0.128906 1.328125 -0.195312 1.328125 -0.28125 L 1.328125 -8.96875 C 1.328125 -9.039062 1.351562 -9.101562 1.40625 -9.15625 C 1.457031 -9.21875 1.519531 -9.25 1.59375 -9.25 C 1.675781 -9.25 1.742188 -9.21875 1.796875 -9.15625 C 1.847656 -9.101562 1.875 -9.039062 1.875 -8.96875 L 1.875 -3.765625 L 7.578125 -9.109375 C 7.628906 -9.160156 7.691406 -9.1875 7.765625 -9.1875 C 7.835938 -9.1875 7.898438 -9.160156 7.953125 -9.109375 C 8.003906 -9.054688 8.03125 -8.992188 8.03125 -8.921875 C 8.03125 -8.847656 8.003906 -8.785156 7.953125 -8.734375 L 4.296875 -5.328125 Z M 8.234375 -0.390625 "/></g></g></g><g fill="#ffffff" fill-opacity="1"><g transform="translate(173.606142, 117.224555)"><g><path d="M 1.875 -0.28125 C 1.863281 -0.195312 1.832031 -0.128906 1.78125 -0.078125 C 1.726562 -0.0234375 1.664062 0 1.59375 0 C 1.507812 0 1.441406 -0.0234375 1.390625 -0.078125 C 1.347656 -0.128906 1.328125 -0.195312 1.328125 -0.28125 L 1.328125 -8.96875 C 1.328125 -9.039062 1.351562 -9.101562 1.40625 -9.15625 C 1.457031 -9.21875 1.519531 -9.25 1.59375 -9.25 C 1.675781 -9.25 1.742188 -9.21875 1.796875 -9.15625 C 1.847656 -9.101562 1.875 -9.039062 1.875 -8.96875 Z M 1.875 -0.28125 "/></g></g></g><g fill="#ffffff" fill-opacity="1"><g transform="translate(179.189875, 117.224555)"><g><path d="M 8.15625 -8.46875 C 8.238281 -8.414062 8.28125 -8.347656 8.28125 -8.265625 C 8.28125 -8.191406 8.257812 -8.132812 8.21875 -8.09375 C 8.164062 -8.019531 8.101562 -7.984375 8.03125 -7.984375 C 7.988281 -7.984375 7.9375 -8.003906 7.875 -8.046875 C 7.050781 -8.597656 6.179688 -8.875 5.265625 -8.875 C 4.523438 -8.875 3.84375 -8.691406 3.21875 -8.328125 C 2.601562 -7.960938 2.113281 -7.453125 1.75 -6.796875 C 1.394531 -6.148438 1.21875 -5.425781 1.21875 -4.625 C 1.21875 -3.8125 1.394531 -3.082031 1.75 -2.4375 C 2.113281 -1.789062 2.601562 -1.285156 3.21875 -0.921875 C 3.84375 -0.554688 4.523438 -0.375 5.265625 -0.375 C 6.191406 -0.375 7.054688 -0.644531 7.859375 -1.1875 C 7.898438 -1.21875 7.953125 -1.234375 8.015625 -1.234375 C 8.097656 -1.234375 8.164062 -1.203125 8.21875 -1.140625 C 8.257812 -1.085938 8.28125 -1.035156 8.28125 -0.984375 C 8.28125 -0.890625 8.242188 -0.816406 8.171875 -0.765625 C 7.828125 -0.515625 7.382812 -0.300781 6.84375 -0.125 C 6.300781 0.0390625 5.773438 0.125 5.265625 0.125 C 4.429688 0.125 3.660156 -0.078125 2.953125 -0.484375 C 2.253906 -0.898438 1.695312 -1.46875 1.28125 -2.1875 C 0.863281 -2.914062 0.65625 -3.726562 0.65625 -4.625 C 0.65625 -5.507812 0.863281 -6.316406 1.28125 -7.046875 C 1.695312 -7.773438 2.253906 -8.34375 2.953125 -8.75 C 3.660156 -9.164062 4.429688 -9.375 5.265625 -9.375 C 5.796875 -9.375 6.304688 -9.296875 6.796875 -9.140625 C 7.296875 -8.984375 7.75 -8.757812 8.15625 -8.46875 Z M 8.15625 -8.46875 "/></g></g></g><g fill="#ffffff" fill-opacity="1"><g transform="translate(190.317039, 117.224555)"><g><path d="M 8.234375 -0.390625 C 8.285156 -0.328125 8.3125 -0.269531 8.3125 -0.21875 C 8.3125 -0.113281 8.273438 -0.0390625 8.203125 0 C 8.140625 0.0390625 8.070312 0.0625 8 0.0625 C 7.925781 0.0625 7.863281 0.03125 7.8125 -0.03125 L 3.859375 -4.921875 L 1.875 -3.09375 L 1.875 -0.28125 C 1.863281 -0.195312 1.832031 -0.128906 1.78125 -0.078125 C 1.726562 -0.0234375 1.664062 0 1.59375 0 C 1.507812 0 1.441406 -0.0234375 1.390625 -0.078125 C 1.347656 -0.128906 1.328125 -0.195312 1.328125 -0.28125 L 1.328125 -8.96875 C 1.328125 -9.039062 1.351562 -9.101562 1.40625 -9.15625 C 1.457031 -9.21875 1.519531 -9.25 1.59375 -9.25 C 1.675781 -9.25 1.742188 -9.21875 1.796875 -9.15625 C 1.847656 -9.101562 1.875 -9.039062 1.875 -8.96875 L 1.875 -3.765625 L 7.578125 -9.109375 C 7.628906 -9.160156 7.691406 -9.1875 7.765625 -9.1875 C 7.835938 -9.1875 7.898438 -9.160156 7.953125 -9.109375 C 8.003906 -9.054688 8.03125 -8.992188 8.03125 -8.921875 C 8.03125 -8.847656 8.003906 -8.785156 7.953125 -8.734375 L 4.296875 -5.328125 Z M 8.234375 -0.390625 "/></g></g></g><g fill="#ffffff" fill-opacity="1"><g transform="translate(201.708175, 117.224555)"><g><path d="M 8.09375 -0.359375 C 8.101562 -0.328125 8.109375 -0.289062 8.109375 -0.25 C 8.109375 -0.164062 8.082031 -0.101562 8.03125 -0.0625 C 7.976562 -0.0195312 7.910156 0 7.828125 0 C 7.765625 0 7.707031 -0.015625 7.65625 -0.046875 C 7.613281 -0.078125 7.582031 -0.117188 7.5625 -0.171875 L 6.453125 -2.890625 L 6.46875 -2.859375 L 2.046875 -2.859375 L 0.984375 -0.171875 C 0.929688 -0.0546875 0.847656 0 0.734375 0 C 0.660156 0 0.597656 -0.0195312 0.546875 -0.0625 C 0.492188 -0.101562 0.46875 -0.15625 0.46875 -0.21875 C 0.457031 -0.257812 0.457031 -0.304688 0.46875 -0.359375 L 4.03125 -9.09375 C 4.050781 -9.164062 4.082031 -9.210938 4.125 -9.234375 C 4.164062 -9.253906 4.21875 -9.265625 4.28125 -9.265625 C 4.40625 -9.265625 4.492188 -9.207031 4.546875 -9.09375 Z M 2.25 -3.390625 L 6.265625 -3.390625 L 4.234375 -8.375 Z M 2.25 -3.390625 "/></g></g></g></svg>