<svg xmlns="http://www.w3.org/2000/svg" xmlns:xlink="http://www.w3.org/1999/xlink" width="1080" zoomAndPan="magnify" viewBox="0 0 810 809.999993" height="1080" preserveAspectRatio="xMidYMid meet" version="1.0"><defs><clipPath id="4f58d17818"><path d="M 376.890625 402 L 433.140625 402 L 433.140625 408 L 376.890625 408 Z M 376.890625 402 " clip-rule="nonzero"/></clipPath><clipPath id="d64855d797"><path d="M 376.890625 419 L 433.140625 419 L 433.140625 424.324219 L 376.890625 424.324219 Z M 376.890625 419 " clip-rule="nonzero"/></clipPath><clipPath id="8f07296081"><path d="M 376.890625 385.324219 L 433.140625 385.324219 L 433.140625 391 L 376.890625 391 Z M 376.890625 385.324219 " clip-rule="nonzero"/></clipPath></defs><g clip-path="url(#4f58d17818)"><path fill="#ffffff" d="M 430.292969 402.1875 L 379.699219 402.1875 C 379.328125 402.1875 378.96875 402.257812 378.625 402.402344 C 378.28125 402.542969 377.976562 402.746094 377.710938 403.011719 C 377.449219 403.273438 377.246094 403.578125 377.101562 403.921875 C 376.960938 404.265625 376.890625 404.625 376.890625 405 C 376.890625 405.371094 376.960938 405.730469 377.101562 406.074219 C 377.246094 406.417969 377.449219 406.722656 377.710938 406.984375 C 377.976562 407.25 378.28125 407.453125 378.625 407.59375 C 378.96875 407.738281 379.328125 407.808594 379.699219 407.808594 L 430.292969 407.808594 C 430.667969 407.808594 431.023438 407.738281 431.371094 407.59375 C 431.714844 407.453125 432.015625 407.25 432.28125 406.984375 C 432.542969 406.722656 432.746094 406.417969 432.890625 406.074219 C 433.03125 405.730469 433.105469 405.371094 433.105469 405 C 433.105469 404.625 433.03125 404.265625 432.890625 403.921875 C 432.746094 403.578125 432.542969 403.273438 432.28125 403.011719 C 432.015625 402.746094 431.714844 402.542969 431.371094 402.402344 C 431.023438 402.257812 430.667969 402.1875 430.292969 402.1875 Z M 430.292969 402.1875 " fill-opacity="1" fill-rule="nonzero"/></g><g clip-path="url(#d64855d797)"><path fill="#ffffff" d="M 430.292969 419.050781 L 379.699219 419.050781 C 379.328125 419.050781 378.96875 419.125 378.625 419.265625 C 378.28125 419.410156 377.976562 419.613281 377.710938 419.875 C 377.449219 420.140625 377.246094 420.441406 377.101562 420.789062 C 376.960938 421.132812 376.890625 421.488281 376.890625 421.863281 C 376.890625 422.234375 376.960938 422.59375 377.101562 422.9375 C 377.246094 423.28125 377.449219 423.585938 377.710938 423.851562 C 377.976562 424.113281 378.28125 424.316406 378.625 424.460938 C 378.96875 424.601562 379.328125 424.671875 379.699219 424.671875 L 430.292969 424.671875 C 430.667969 424.671875 431.023438 424.601562 431.371094 424.460938 C 431.714844 424.316406 432.015625 424.113281 432.28125 423.851562 C 432.542969 423.585938 432.746094 423.28125 432.890625 422.9375 C 433.03125 422.59375 433.105469 422.234375 433.105469 421.863281 C 433.105469 421.488281 433.03125 421.132812 432.890625 420.789062 C 432.746094 420.441406 432.542969 420.140625 432.28125 419.875 C 432.015625 419.613281 431.714844 419.410156 431.371094 419.265625 C 431.023438 419.125 430.667969 419.050781 430.292969 419.050781 Z M 430.292969 419.050781 " fill-opacity="1" fill-rule="nonzero"/></g><g clip-path="url(#8f07296081)"><path fill="#ffffff" d="M 379.699219 390.945312 L 430.292969 390.945312 C 430.667969 390.945312 431.023438 390.875 431.371094 390.730469 C 431.714844 390.589844 432.015625 390.386719 432.28125 390.121094 C 432.542969 389.859375 432.746094 389.554688 432.890625 389.210938 C 433.03125 388.867188 433.105469 388.507812 433.105469 388.132812 C 433.105469 387.761719 433.03125 387.402344 432.890625 387.058594 C 432.746094 386.714844 432.542969 386.410156 432.28125 386.148438 C 432.015625 385.882812 431.714844 385.679688 431.371094 385.539062 C 431.023438 385.394531 430.667969 385.324219 430.292969 385.324219 L 379.699219 385.324219 C 379.328125 385.324219 378.96875 385.394531 378.625 385.539062 C 378.28125 385.679688 377.976562 385.882812 377.710938 386.148438 C 377.449219 386.410156 377.246094 386.714844 377.101562 387.058594 C 376.960938 387.402344 376.890625 387.761719 376.890625 388.132812 C 376.890625 388.507812 376.960938 388.867188 377.101562 389.210938 C 377.246094 389.554688 377.449219 389.859375 377.710938 390.121094 C 377.976562 390.386719 378.28125 390.589844 378.625 390.730469 C 378.96875 390.875 379.328125 390.945312 379.699219 390.945312 Z M 379.699219 390.945312 " fill-opacity="1" fill-rule="nonzero"/></g></svg>