<svg xmlns="http://www.w3.org/2000/svg" xmlns:xlink="http://www.w3.org/1999/xlink" width="1080" zoomAndPan="magnify" viewBox="0 0 810 809.999993" height="1080" preserveAspectRatio="xMidYMid meet" version="1.0"><path fill="#ffffff" d="M 804.214844 352.15625 C 803.335938 353.316406 802.335938 354.355469 801.210938 355.277344 C 800.089844 356.203125 798.875 356.980469 797.566406 357.617188 C 796.261719 358.253906 794.898438 358.730469 793.480469 359.046875 C 792.0625 359.363281 790.625 359.507812 789.171875 359.484375 C 787 359.457031 784.890625 359.082031 782.839844 358.355469 C 780.792969 357.628906 778.917969 356.589844 777.214844 355.242188 L 732.855469 319.757812 L 732.855469 699.300781 C 732.839844 700.992188 732.777344 702.683594 732.675781 704.371094 C 732.574219 706.058594 732.429688 707.746094 732.246094 709.425781 C 732.0625 711.109375 731.835938 712.785156 731.570312 714.457031 C 731.300781 716.125 730.996094 717.789062 730.644531 719.445312 C 730.296875 721.101562 729.910156 722.746094 729.480469 724.382812 C 729.050781 726.019531 728.582031 727.644531 728.070312 729.257812 C 727.5625 730.871094 727.015625 732.472656 726.425781 734.058594 C 725.839844 735.644531 725.210938 737.214844 724.546875 738.769531 C 723.882812 740.328125 723.179688 741.867188 722.4375 743.386719 C 721.699219 744.90625 720.921875 746.410156 720.109375 747.894531 C 719.292969 749.375 718.441406 750.839844 717.558594 752.28125 C 716.671875 753.722656 715.75 755.140625 714.796875 756.535156 C 713.839844 757.933594 712.851562 759.304688 711.828125 760.652344 C 710.804688 762 709.75 763.320312 708.660156 764.617188 C 707.574219 765.914062 706.453125 767.179688 705.304688 768.421875 C 704.152344 769.664062 702.972656 770.875 701.765625 772.058594 C 700.554688 773.242188 699.316406 774.394531 698.050781 775.515625 C 696.785156 776.636719 695.492188 777.726562 694.171875 778.785156 C 692.851562 779.84375 691.507812 780.871094 690.136719 781.863281 C 688.765625 782.855469 687.371094 783.8125 685.957031 784.738281 C 684.539062 785.660156 683.097656 786.550781 681.636719 787.402344 C 680.175781 788.257812 678.695312 789.074219 677.195312 789.855469 C 675.695312 790.636719 674.175781 791.378906 672.636719 792.085938 C 671.101562 792.792969 669.546875 793.460938 667.976562 794.089844 C 666.40625 794.71875 664.820312 795.3125 663.222656 795.863281 C 661.621094 796.414062 660.011719 796.925781 658.386719 797.398438 C 656.761719 797.875 655.125 798.304688 653.480469 798.699219 C 651.835938 799.089844 650.179688 799.441406 648.519531 799.753906 C 646.855469 800.066406 645.183594 800.335938 643.507812 800.566406 C 641.832031 800.796875 640.152344 800.984375 638.464844 801.128906 C 636.78125 801.277344 635.09375 801.382812 633.402344 801.445312 C 631.710938 801.511719 630.019531 801.535156 628.328125 801.515625 L 501.429688 801.515625 L 501.429688 589.757812 C 501.453125 586.558594 501.324219 583.367188 501.039062 580.183594 C 500.753906 576.996094 500.316406 573.832031 499.722656 570.691406 C 499.128906 567.546875 498.386719 564.441406 497.492188 561.371094 C 496.597656 558.300781 495.558594 555.28125 494.367188 552.3125 C 493.179688 549.34375 491.851562 546.4375 490.382812 543.597656 C 488.914062 540.757812 487.308594 537.996094 485.570312 535.3125 C 483.832031 532.628906 481.96875 530.035156 479.976562 527.53125 C 477.988281 525.027344 475.878906 522.625 473.65625 520.328125 C 471.453125 518.007812 469.136719 515.804688 466.707031 513.71875 C 464.277344 511.632812 461.75 509.675781 459.121094 507.851562 C 456.492188 506.023438 453.777344 504.332031 450.976562 502.785156 C 448.175781 501.234375 445.304688 499.828125 442.359375 498.574219 C 439.414062 497.316406 436.414062 496.210938 433.359375 495.261719 C 430.300781 494.308594 427.203125 493.515625 424.066406 492.882812 C 420.929688 492.246094 417.765625 491.773438 414.582031 491.460938 C 411.394531 491.148438 408.203125 491 405 491.015625 C 403.402344 491.03125 401.808594 491.089844 400.214844 491.1875 C 398.617188 491.285156 397.027344 491.421875 395.441406 491.597656 C 393.851562 491.773438 392.269531 491.988281 390.691406 492.238281 C 389.117188 492.492188 387.546875 492.785156 385.984375 493.113281 C 384.421875 493.445312 382.867188 493.8125 381.324219 494.21875 C 379.777344 494.625 378.246094 495.070312 376.722656 495.550781 C 375.199219 496.03125 373.6875 496.550781 372.191406 497.105469 C 370.695312 497.664062 369.210938 498.253906 367.742188 498.882812 C 366.273438 499.511719 364.820312 500.175781 363.386719 500.875 C 361.949219 501.578125 360.53125 502.3125 359.132812 503.082031 C 357.734375 503.851562 356.355469 504.652344 354.992188 505.492188 C 353.632812 506.328125 352.296875 507.199219 350.976562 508.101562 C 349.660156 509.003906 348.367188 509.9375 347.09375 510.90625 C 345.824219 511.871094 344.574219 512.871094 343.351562 513.898438 C 342.128906 514.925781 340.933594 515.980469 339.761719 517.070312 C 338.59375 518.15625 337.449219 519.269531 336.332031 520.414062 C 335.21875 521.554688 334.128906 522.726562 333.070312 523.921875 C 332.011719 525.117188 330.984375 526.339844 329.984375 527.585938 C 328.988281 528.832031 328.019531 530.101562 327.082031 531.394531 C 326.148438 532.691406 325.242188 534.007812 324.371094 535.34375 C 323.5 536.683594 322.664062 538.042969 321.859375 539.421875 C 321.054688 540.800781 320.28125 542.199219 319.546875 543.617188 C 318.808594 545.035156 318.109375 546.46875 317.445312 547.921875 C 316.777344 549.375 316.148438 550.839844 315.554688 552.324219 C 314.960938 553.804688 314.40625 555.300781 313.882812 556.8125 C 313.363281 558.324219 312.882812 559.84375 312.4375 561.378906 C 311.992188 562.914062 311.582031 564.457031 311.214844 566.011719 C 310.84375 567.5625 310.511719 569.125 310.21875 570.695312 C 309.925781 572.265625 309.671875 573.84375 309.457031 575.425781 C 309.242188 577.007812 309.066406 578.59375 308.925781 580.1875 C 308.789062 581.777344 308.691406 583.371094 308.632812 584.96875 C 308.574219 586.5625 308.550781 588.160156 308.570312 589.757812 L 308.570312 801.515625 L 182.441406 801.515625 C 180.746094 801.539062 179.046875 801.523438 177.351562 801.464844 C 175.652344 801.40625 173.957031 801.308594 172.265625 801.167969 C 170.574219 801.027344 168.882812 800.84375 167.203125 800.617188 C 165.519531 800.394531 163.839844 800.128906 162.171875 799.824219 C 160.5 799.515625 158.839844 799.171875 157.183594 798.78125 C 155.53125 798.394531 153.886719 797.964844 152.257812 797.496094 C 150.625 797.027344 149.003906 796.519531 147.394531 795.972656 C 145.789062 795.421875 144.195312 794.835938 142.617188 794.210938 C 141.039062 793.582031 139.476562 792.917969 137.929688 792.214844 C 136.386719 791.511719 134.855469 790.773438 133.347656 789.992188 C 131.839844 789.214844 130.347656 788.402344 128.878906 787.550781 C 127.410156 786.699219 125.960938 785.8125 124.535156 784.890625 C 123.109375 783.964844 121.707031 783.007812 120.328125 782.019531 C 118.949219 781.027344 117.59375 780.003906 116.265625 778.945312 C 114.9375 777.886719 113.636719 776.796875 112.359375 775.675781 C 111.085938 774.554688 109.839844 773.402344 108.621094 772.21875 C 107.402344 771.035156 106.210938 769.824219 105.054688 768.582031 C 103.894531 767.339844 102.765625 766.074219 101.671875 764.777344 C 100.574219 763.480469 99.507812 762.15625 98.476562 760.808594 C 97.445312 759.457031 96.445312 758.085938 95.484375 756.6875 C 94.519531 755.289062 93.589844 753.867188 92.695312 752.425781 C 91.800781 750.980469 90.941406 749.515625 90.117188 748.03125 C 89.296875 746.546875 88.511719 745.039062 87.761719 743.515625 C 87.011719 741.992188 86.300781 740.449219 85.628906 738.890625 C 84.957031 737.332031 84.320312 735.757812 83.726562 734.164062 C 83.128906 732.574219 82.574219 730.972656 82.054688 729.355469 C 81.539062 727.734375 81.0625 726.105469 80.625 724.464844 C 80.1875 722.824219 79.792969 721.171875 79.4375 719.511719 C 79.078125 717.851562 78.765625 716.183594 78.492188 714.507812 C 78.214844 712.832031 77.984375 711.148438 77.792969 709.460938 C 77.601562 707.773438 77.453125 706.085938 77.34375 704.390625 C 77.234375 702.695312 77.167969 701 77.144531 699.300781 L 77.144531 319.371094 L 32.398438 355.242188 C 31.402344 355.90625 30.351562 356.472656 29.25 356.9375 C 28.148438 357.40625 27.011719 357.765625 25.84375 358.023438 C 24.671875 358.277344 23.488281 358.421875 22.292969 358.460938 C 21.09375 358.496094 19.90625 358.417969 18.722656 358.230469 C 17.539062 358.046875 16.382812 357.753906 15.257812 357.351562 C 14.128906 356.949219 13.046875 356.445312 12.011719 355.84375 C 10.976562 355.242188 10.007812 354.546875 9.101562 353.765625 C 8.195312 352.980469 7.371094 352.121094 6.625 351.183594 C 5.882812 350.246094 5.230469 349.246094 4.671875 348.1875 C 4.109375 347.128906 3.65625 346.027344 3.300781 344.882812 C 2.945312 343.738281 2.699219 342.574219 2.5625 341.382812 C 2.425781 340.195312 2.402344 339 2.488281 337.808594 C 2.574219 336.613281 2.765625 335.4375 3.070312 334.277344 C 3.375 333.121094 3.785156 332 4.296875 330.917969 C 4.8125 329.835938 5.417969 328.8125 6.125 327.84375 C 6.828125 326.875 7.613281 325.980469 8.484375 325.15625 L 394.199219 16.585938 C 395.027344 15.882812 395.914062 15.261719 396.851562 14.714844 C 397.792969 14.167969 398.769531 13.710938 399.789062 13.335938 C 400.808594 12.960938 401.855469 12.679688 402.925781 12.492188 C 403.992188 12.300781 405.070312 12.207031 406.15625 12.207031 C 407.242188 12.207031 408.320312 12.300781 409.390625 12.492188 C 410.460938 12.679688 411.503906 12.960938 412.523438 13.335938 C 413.542969 13.710938 414.523438 14.167969 415.460938 14.714844 C 416.402344 15.261719 417.285156 15.882812 418.113281 16.585938 L 803.828125 325.15625 C 804.269531 325.597656 804.691406 326.054688 805.089844 326.535156 C 805.488281 327.015625 805.863281 327.511719 806.214844 328.03125 C 806.5625 328.546875 806.886719 329.078125 807.1875 329.625 C 807.484375 330.171875 807.753906 330.734375 808 331.308594 C 808.242188 331.882812 808.460938 332.464844 808.644531 333.0625 C 808.832031 333.65625 808.992188 334.257812 809.121094 334.867188 C 809.25 335.480469 809.347656 336.09375 809.417969 336.714844 C 809.488281 337.332031 809.527344 337.953125 809.535156 338.578125 C 809.542969 339.203125 809.523438 339.824219 809.472656 340.445312 C 809.417969 341.066406 809.339844 341.683594 809.226562 342.296875 C 809.117188 342.914062 808.976562 343.519531 808.804688 344.121094 C 808.632812 344.71875 808.433594 345.308594 808.207031 345.890625 C 807.980469 346.472656 807.726562 347.039062 807.441406 347.59375 C 807.160156 348.152344 806.851562 348.691406 806.515625 349.21875 C 806.179688 349.742188 805.820312 350.253906 805.4375 350.742188 C 805.050781 351.234375 804.644531 351.707031 804.214844 352.15625 Z M 804.214844 352.15625 " fill-opacity="1" fill-rule="nonzero"/></svg>