<svg xmlns="http://www.w3.org/2000/svg" xmlns:xlink="http://www.w3.org/1999/xlink" width="1080" zoomAndPan="magnify" viewBox="0 0 810 809.999993" height="1080" preserveAspectRatio="xMidYMid meet" version="1.0"><defs><clipPath id="2dd8456195"><path d="M 38 112.386719 L 772 112.386719 L 772 461 L 38 461 Z M 38 112.386719 " clip-rule="nonzero"/></clipPath><clipPath id="b70f7895c4"><path d="M 38 424 L 772 424 L 772 697.386719 L 38 697.386719 Z M 38 424 " clip-rule="nonzero"/></clipPath></defs><path fill="#ffffff" d="M 280.742188 405.074219 L 19.125 150.539062 C 7.328125 166.324219 0.332031 185.902344 0.332031 207.078125 L 0.332031 603.066406 C 0.332031 624.242188 7.328125 643.820312 19.125 659.605469 L 280.742188 405.074219 " fill-opacity="1" fill-rule="nonzero"/><g clip-path="url(#2dd8456195)"><path fill="#ffffff" d="M 358.441406 441.78125 C 384.546875 467.179688 425.453125 467.179688 451.558594 441.78125 L 771.097656 130.898438 C 755.394531 119.308594 736.003906 112.441406 715.03125 112.441406 L 94.96875 112.441406 C 73.996094 112.441406 54.605469 119.308594 38.902344 130.898438 L 358.441406 441.78125 " fill-opacity="1" fill-rule="nonzero"/></g><path fill="#ffffff" d="M 790.875 150.539062 L 529.257812 405.074219 L 790.875 659.605469 C 802.671875 643.820312 809.667969 624.242188 809.667969 603.066406 L 809.667969 207.078125 C 809.667969 185.902344 802.671875 166.324219 790.875 150.539062 " fill-opacity="1" fill-rule="nonzero"/><g clip-path="url(#b70f7895c4)"><path fill="#ffffff" d="M 509.269531 424.511719 L 470.992188 461.753906 C 453.226562 479.039062 429.792969 488.558594 405 488.558594 C 380.207031 488.558594 356.773438 479.039062 339.007812 461.753906 L 300.730469 424.511719 L 38.902344 679.246094 C 54.605469 690.835938 73.996094 697.703125 94.96875 697.703125 L 715.03125 697.703125 C 736.003906 697.703125 755.394531 690.835938 771.097656 679.246094 L 509.269531 424.511719 " fill-opacity="1" fill-rule="nonzero"/></g></svg>