<svg xmlns="http://www.w3.org/2000/svg" xmlns:xlink="http://www.w3.org/1999/xlink" width="1080" zoomAndPan="magnify" viewBox="0 0 810 809.999993" height="1080" preserveAspectRatio="xMidYMid meet" version="1.0"><path fill="#000000" d="M 404.917969 243 C 315.414062 243 243 315.496094 243 405 C 243 494.503906 315.414062 567 404.917969 567 C 494.425781 567 567 494.503906 567 405 C 567 315.496094 494.425781 243 404.917969 243 Z M 405 534.601562 C 333.394531 534.601562 275.398438 476.605469 275.398438 405 C 275.398438 333.394531 333.394531 275.398438 405 275.398438 C 476.605469 275.398438 534.601562 333.394531 534.601562 405 C 534.601562 476.605469 476.605469 534.601562 405 534.601562 Z M 405 534.601562 " fill-opacity="1" fill-rule="nonzero"/><path fill="#000000" d="M 413.101562 324 L 388.800781 324 L 388.800781 421.199219 L 473.769531 472.230469 L 486 452.304688 L 413.101562 409.050781 Z M 413.101562 324 " fill-opacity="1" fill-rule="nonzero"/><path fill="#ffffff" d="M 404.910156 1.09375 C 398.28125 1.101562 391.652344 1.273438 385.03125 1.605469 C 378.410156 1.9375 371.796875 2.433594 365.199219 3.089844 C 358.601562 3.746094 352.023438 4.5625 345.464844 5.542969 C 338.90625 6.523438 332.375 7.660156 325.871094 8.960938 C 319.371094 10.261719 312.902344 11.71875 306.472656 13.335938 C 300.042969 14.949219 293.652344 16.722656 287.308594 18.652344 C 280.964844 20.582031 274.671875 22.667969 268.429688 24.902344 C 262.1875 27.140625 256.003906 29.53125 249.878906 32.074219 C 243.753906 34.613281 237.695312 37.304688 231.703125 40.140625 C 225.710938 42.980469 219.789062 45.964844 213.945312 49.089844 C 208.097656 52.21875 202.332031 55.488281 196.644531 58.902344 C 190.957031 62.3125 185.359375 65.859375 179.847656 69.546875 C 174.332031 73.230469 168.914062 77.050781 163.589844 81 C 158.265625 84.953125 153.039062 89.03125 147.914062 93.238281 C 142.789062 97.445312 137.769531 101.777344 132.855469 106.230469 C 127.941406 110.683594 123.140625 115.253906 118.453125 119.945312 C 113.765625 124.632812 109.195312 129.433594 104.738281 134.347656 C 100.285156 139.261719 95.957031 144.28125 91.75 149.40625 C 87.542969 154.53125 83.460938 159.753906 79.511719 165.082031 C 75.558594 170.40625 71.742188 175.824219 68.054688 181.335938 C 64.371094 186.847656 60.820312 192.449219 57.410156 198.136719 C 54 203.820312 50.730469 209.589844 47.601562 215.433594 C 44.472656 221.28125 41.488281 227.203125 38.652344 233.195312 C 35.8125 239.1875 33.125 245.246094 30.582031 251.371094 C 28.039062 257.496094 25.652344 263.679688 23.414062 269.921875 C 21.175781 276.164062 19.089844 282.457031 17.160156 288.800781 C 15.234375 295.144531 13.460938 301.53125 11.84375 307.964844 C 10.226562 314.394531 8.769531 320.859375 7.46875 327.363281 C 6.171875 333.867188 5.03125 340.398438 4.050781 346.957031 C 3.074219 353.511719 2.253906 360.09375 1.597656 366.691406 C 0.941406 373.289062 0.449219 379.898438 0.113281 386.523438 C -0.21875 393.144531 -0.386719 399.773438 -0.394531 406.402344 C 21.878906 944.097656 788.027344 943.941406 810.21875 406.398438 C 810.210938 399.769531 810.042969 393.140625 809.710938 386.519531 C 809.378906 379.898438 808.882812 373.285156 808.226562 366.6875 C 807.570312 360.089844 806.75 353.511719 805.773438 346.953125 C 804.792969 340.394531 803.652344 333.863281 802.355469 327.359375 C 801.054688 320.859375 799.597656 314.390625 797.980469 307.960938 C 796.363281 301.53125 794.589844 295.140625 792.660156 288.796875 C 790.730469 282.453125 788.648438 276.160156 786.410156 269.917969 C 784.171875 263.675781 781.78125 257.492188 779.242188 251.367188 C 776.699219 245.246094 774.011719 239.183594 771.171875 233.191406 C 768.335938 227.199219 765.351562 221.28125 762.222656 215.433594 C 759.09375 209.585938 755.824219 203.820312 752.414062 198.132812 C 749.003906 192.445312 745.453125 186.847656 741.769531 181.335938 C 738.082031 175.824219 734.265625 170.402344 730.3125 165.078125 C 726.363281 159.753906 722.28125 154.527344 718.074219 149.402344 C 713.867188 144.277344 709.535156 139.257812 705.082031 134.347656 C 700.628906 129.433594 696.058594 124.632812 691.371094 119.941406 C 686.679688 115.253906 681.878906 110.683594 676.96875 106.230469 C 672.054688 101.777344 667.035156 97.445312 661.910156 93.238281 C 656.785156 89.03125 651.558594 84.953125 646.234375 81 C 640.910156 77.050781 635.488281 73.230469 629.976562 69.546875 C 624.464844 65.859375 618.867188 62.3125 613.179688 58.898438 C 607.492188 55.488281 601.726562 52.21875 595.878906 49.089844 C 590.03125 45.960938 584.113281 42.980469 578.121094 40.140625 C 572.125 37.304688 566.066406 34.613281 559.941406 32.074219 C 553.820312 29.53125 547.636719 27.140625 541.394531 24.902344 C 535.152344 22.664062 528.859375 20.582031 522.515625 18.652344 C 516.167969 16.722656 509.78125 14.949219 503.351562 13.335938 C 496.921875 11.71875 490.453125 10.261719 483.949219 8.960938 C 477.449219 7.660156 470.917969 6.523438 464.359375 5.542969 C 457.800781 4.5625 451.222656 3.746094 444.625 3.089844 C 438.027344 2.433594 431.414062 1.9375 424.792969 1.605469 C 418.171875 1.273438 411.542969 1.101562 404.910156 1.09375 Z M 438.65625 420.308594 L 291.558594 567.40625 L 243.84375 519.691406 L 371.167969 392.367188 L 371.167969 136.460938 L 438.65625 136.460938 Z M 438.65625 420.308594 " fill-opacity="1" fill-rule="nonzero"/></svg>